<svg width="396" height="119" viewBox="0 0 396 119" fill="none" xmlns="http://www.w3.org/2000/svg">
<g clip-path="url(#clip0_4400_552)">
<path d="M33.3724 59.5173L19.607 37.3613H8.31085V59.5173H0V29.102H26.3377C28.2311 29.102 29.8527 28.4268 31.2025 27.0718C32.5524 25.7168 33.225 24.0936 33.225 22.1884C33.225 20.2831 32.5524 18.6599 31.2025 17.3049C29.8573 15.9545 28.2357 15.2747 26.3377 15.2747H0V6.94141H26.2639C30.3042 6.94141 33.7824 8.34263 36.7032 11.1451C39.6194 13.9521 41.2041 17.3558 41.4529 21.3606V21.4346C41.6003 25.1896 40.5177 28.5563 38.2004 31.5345C35.8832 34.5126 32.8748 36.3809 29.1847 37.1301L43.1022 59.5126H33.377L33.3724 59.5173Z" fill="#4E4E4F"/>
<path d="M95.1761 59.5173L89.7907 46.897H65.024L59.7122 59.5173H50.5859L63.0061 30.2257H72.1324L68.6911 38.3371H86.1973C77.8173 18.609 73.3763 8.14377 72.8787 6.94141H82.005L104.302 59.5173H95.1761Z" fill="#4E4E4F"/>
<path d="M154.612 6.80078L152.922 9.8252H111.828V6.80078H154.612Z" fill="#FEE000"/>
<path d="M152.194 12.3555L150.503 15.3799H111.828V12.3555H152.194Z" fill="#FEE000"/>
<path d="M149.756 17.9102L148.066 20.9346H111.805V17.9102H149.756Z" fill="#FEE000"/>
<path d="M154.506 59.5175H111.781V51.1796L131.384 29.3242H143.058L123.529 51.1796H154.506V59.5175Z" fill="#4E4E4F"/>
<path d="M189.52 5.59056C193.261 5.59056 196.826 6.31661 200.222 7.7687C203.612 9.22079 206.542 11.1862 209.012 13.6649C211.481 16.1437 213.439 19.0848 214.885 22.4885C216.332 25.8921 217.055 29.4714 217.055 33.2265C217.055 38.2348 215.821 42.8547 213.351 47.0861C210.882 51.3175 207.542 54.6703 203.327 57.149C199.111 59.6277 194.509 60.8671 189.52 60.8671C184.531 60.8671 179.919 59.6277 175.676 57.149C171.438 54.6703 168.093 51.3175 165.651 47.0861C163.205 42.8547 161.984 38.2348 161.984 33.2265C161.984 28.2182 163.205 23.603 165.651 19.3669C168.093 15.1355 171.438 11.7828 175.676 9.30403C179.914 6.8253 184.531 5.58594 189.52 5.58594V5.59056ZM202.912 46.6745C206.602 42.9703 208.45 38.4892 208.45 33.2311C208.45 27.9731 206.602 23.492 202.912 19.7878C199.222 16.0835 194.758 14.2291 189.52 14.2291C184.282 14.2291 179.818 16.0835 176.128 19.7878C172.437 23.492 170.59 27.9731 170.59 33.2311C170.59 38.4892 172.433 42.9703 176.128 46.6745C179.818 50.3788 184.282 52.2332 189.52 52.2332C194.758 52.2332 199.222 50.3834 202.912 46.6745Z" fill="#4E4E4F"/>
<path d="M257.907 59.5173L244.141 37.3613H232.845V59.5173H224.539V29.102H250.877C252.77 29.102 254.392 28.4268 255.742 27.0718C257.087 25.7215 257.764 24.0936 257.764 22.1884C257.764 20.2831 257.091 18.6599 255.742 17.3049C254.396 15.9545 252.775 15.2747 250.877 15.2747H224.539V6.94141H250.803C254.843 6.94141 258.321 8.34263 261.242 11.1451C264.158 13.9521 265.743 17.3558 265.992 21.3606V21.4346C266.139 25.1896 265.057 28.5563 262.735 31.5345C260.418 34.5126 257.409 36.3809 253.719 37.1301L267.637 59.5126H257.911L257.907 59.5173Z" fill="#4E4E4F"/>
<path d="M317.514 35.3504C317.334 35.1516 317.081 35.0591 316.753 35.073C316.542 35.073 316.302 35.1284 316.03 35.2256C315.915 35.2672 315.804 35.3134 315.694 35.3597C315.348 35.4938 314.998 35.6279 314.657 35.7666C308.926 38.0188 303.334 40.4235 297.879 42.9716C297.575 40.6825 296.396 38.3378 294.322 35.9377C292.259 33.5423 289.425 30.7306 285.837 27.5119C285.311 27.031 284.768 26.5223 284.201 25.9951C283.925 25.75 283.644 25.5095 283.386 25.2644C282.216 24.2748 281.308 23.3175 280.645 22.3926C279.99 21.4723 279.852 20.4457 280.235 19.3266C280.617 18.2028 281.829 16.8201 283.869 15.183C285.583 13.8234 287.817 12.3112 290.568 10.6418C293.318 8.97233 296.225 7.46474 299.266 6.11902C302.311 4.77329 305.144 3.90389 307.765 3.52005C311.944 3.03448 312.704 4.39408 310.064 7.58961C308.134 9.73999 305.439 12.0245 301.988 14.4524C298.542 16.8802 295.585 18.8595 293.125 20.3717C292.862 20.5151 292.563 20.5844 292.217 20.5844C291.692 20.6029 291.208 20.7324 290.766 20.9775C290.098 21.4446 289.729 21.9579 289.646 22.5128C289.568 23.0724 289.762 23.5117 290.236 23.8354C290.711 24.1592 291.402 24.0944 292.309 23.6551C295.331 22.0134 298.796 19.8491 302.698 17.1531C306.6 14.4616 309.733 11.858 312.096 9.34691C314.694 6.32712 315.464 4.02875 314.395 2.4518C313.326 0.87022 310.806 0.36615 306.835 0.930338C302.919 1.67951 298.552 3.31658 293.733 5.8508C288.914 8.38039 284.878 10.9655 281.635 13.5968C278.627 16.0894 277.088 18.3462 277.019 20.3671C276.95 22.3926 277.963 24.3488 280.059 26.2309C281.308 27.4056 282.487 28.4969 283.598 29.5097C287.122 32.6867 289.854 35.4059 291.793 37.6627C293.733 39.924 294.788 42.1531 294.972 44.3636C292.733 45.4549 290.19 46.8469 287.348 48.5349C284.51 50.2274 282.073 51.9801 280.059 53.8068C278.023 55.7676 277.037 57.3954 277.106 58.681C277.18 59.9666 278.069 60.7343 279.769 60.9747C281.474 61.2152 283.639 60.8314 286.26 59.8186C289.329 58.5654 291.982 56.674 294.23 54.1536C296.478 51.6333 297.736 48.8401 297.994 45.7833C302.117 43.7161 307.249 41.4039 313.386 38.8465C313.676 38.7309 313.966 38.6061 314.261 38.4858C314.556 38.361 314.855 38.2407 315.159 38.1159C315.781 37.8615 316.408 37.6026 317.053 37.3436C317.085 37.3297 317.122 37.3158 317.15 37.2973C317.555 37.0985 317.79 36.8118 317.859 36.4372C317.868 36.3817 317.878 36.3216 317.878 36.2707C317.887 35.9331 317.767 35.6279 317.509 35.3504H317.514ZM283.059 58.1122C282.271 58.3018 281.598 58.4035 281.041 58.4174C280.488 58.4266 280.202 58.2648 280.184 57.9318C280.161 57.5942 280.741 56.8636 281.907 55.7306C283.782 54.0103 285.979 52.3963 288.499 50.8887C291.019 49.3765 293.125 48.2158 294.792 47.4111C294.41 49.5152 293.235 51.5315 291.268 53.4553C289.296 55.3791 287.14 56.7664 284.777 57.6127C284.413 57.7561 283.842 57.9226 283.054 58.1168L283.059 58.1122Z" fill="#4E4E4F"/>
<path d="M294.482 46.7594C292.791 47.578 290.654 48.7572 288.134 50.2648C285.581 51.7863 283.324 53.4465 281.408 55.2038C279.749 56.8131 279.436 57.4559 279.468 57.96C279.486 58.2374 279.638 59.1207 280.997 59.1207H281.053C281.656 59.1115 282.389 59.0005 283.223 58.797C284.033 58.5981 284.628 58.427 285.029 58.2698C287.47 57.3911 289.732 55.9391 291.764 53.9505C293.828 51.9296 295.085 49.7654 295.491 47.5271L295.744 46.1444L294.482 46.7548V46.7594ZM284.522 56.9379C284.181 57.0721 283.633 57.2293 282.886 57.4096C282.168 57.59 281.55 57.6825 281.057 57.6964C281.242 57.442 281.619 56.9934 282.384 56.2535C284.213 54.5748 286.397 52.9701 288.861 51.4949C290.677 50.4128 292.28 49.5018 293.662 48.7757C293.104 50.2001 292.137 51.592 290.764 52.9378C288.88 54.7829 286.784 56.1287 284.536 56.9333L284.517 56.9426L284.522 56.9379ZM294.482 46.7594C292.791 47.578 290.654 48.7572 288.134 50.2648C285.581 51.7863 283.324 53.4465 281.408 55.2038C279.749 56.8131 279.436 57.4559 279.468 57.96C279.486 58.2374 279.638 59.1207 280.997 59.1207H281.053C281.656 59.1115 282.389 59.0005 283.223 58.797C284.033 58.5981 284.628 58.427 285.029 58.2698C287.47 57.3911 289.732 55.9391 291.764 53.9505C293.828 51.9296 295.085 49.7654 295.491 47.5271L295.744 46.1444L294.482 46.7548V46.7594ZM284.522 56.9379C284.181 57.0721 283.633 57.2293 282.886 57.4096C282.168 57.59 281.55 57.6825 281.057 57.6964C281.242 57.442 281.619 56.9934 282.384 56.2535C284.213 54.5748 286.397 52.9701 288.861 51.4949C290.677 50.4128 292.28 49.5018 293.662 48.7757C293.104 50.2001 292.137 51.592 290.764 52.9378C288.88 54.7829 286.784 56.1287 284.536 56.9333L284.517 56.9426L284.522 56.9379ZM318.032 34.856C317.751 34.5508 317.258 34.2641 316.452 34.3797C316.254 34.4074 316.038 34.4629 315.798 34.5462L315.78 34.5554C315.591 34.6248 315.406 34.7034 315.218 34.7774C309.505 37.0064 303.862 39.4065 298.416 41.9315C297.932 39.8088 296.739 37.6353 294.864 35.4711C292.796 33.0663 289.921 30.2084 286.328 26.9851C285.802 26.5042 285.259 25.9955 284.674 25.4498C284.402 25.2139 284.13 24.9781 283.854 24.7145C282.739 23.7711 281.859 22.8462 281.237 21.9768C280.721 21.2461 280.615 20.4553 280.924 19.5582C281.149 18.8784 281.933 17.6668 284.324 15.743C285.996 14.4158 288.226 12.9035 290.953 11.2526C293.662 9.6109 296.56 8.10332 299.568 6.77147C302.539 5.45349 305.336 4.60258 307.865 4.228C310.468 3.92278 310.841 4.46384 310.873 4.52396C310.91 4.58408 311.15 5.17602 309.556 7.10443C307.676 9.1947 304.999 11.4653 301.6 13.8608C298.19 16.2655 295.224 18.2448 292.787 19.7478C292.635 19.8264 292.45 19.868 292.206 19.868C291.58 19.8911 290.985 20.053 290.442 20.349L290.373 20.3906C289.543 20.9733 289.064 21.6485 288.954 22.4115C288.838 23.2347 289.152 23.9468 289.847 24.4232C290.548 24.8995 291.483 24.8579 292.662 24.2798C295.694 22.6335 299.213 20.4368 303.115 17.7408C307.045 15.0308 310.242 12.3763 312.647 9.81438C315.512 6.48937 316.282 3.9459 314.992 2.04986C313.743 0.209313 311.044 -0.387246 306.709 0.232436C302.737 0.995477 298.264 2.66954 293.408 5.22226C288.567 7.76573 284.453 10.3971 281.186 13.0469C277.989 15.6967 276.391 18.083 276.317 20.3443C276.234 22.578 277.335 24.7376 279.579 26.7539C280.841 27.9378 282.034 29.043 283.13 30.0419C286.613 33.1819 289.354 35.9011 291.266 38.1301C292.952 40.0909 293.943 42.0471 294.215 43.9385C292.091 44.9929 289.668 46.3294 286.991 47.9156C284.112 49.6266 281.624 51.4302 279.574 53.2846C277.358 55.4211 276.321 57.1969 276.404 58.7138C276.473 59.856 277.091 61.3035 279.68 61.6734C280.035 61.7243 280.412 61.7474 280.804 61.7474C282.416 61.7474 284.337 61.322 286.535 60.4711C289.686 59.1808 292.459 57.2154 294.768 54.6211C297.016 52.1007 298.324 49.2844 298.67 46.2415C302.59 44.29 307.436 42.1072 313.126 39.7302C313.402 39.61 313.683 39.4944 313.969 39.3741C314.255 39.2585 314.54 39.1337 314.835 39.018C315.457 38.7591 316.097 38.5001 316.742 38.2365C316.941 38.1579 317.143 38.0746 317.341 37.9914C317.475 37.9359 317.599 37.8712 317.705 37.8018C318.29 37.4318 318.498 36.9324 318.567 36.5486C318.576 36.5208 318.576 36.4884 318.576 36.4607C318.654 35.8688 318.47 35.3092 318.032 34.8468V34.856ZM316.788 36.6873C316.374 36.8538 315.964 37.0249 315.554 37.1914C315.241 37.3209 314.927 37.4457 314.619 37.5752C314.315 37.7001 314.011 37.8249 313.706 37.9498C307.326 40.595 301.945 43.0136 297.684 45.1501L297.324 45.3305L297.292 45.7282C297.048 48.6139 295.841 51.2868 293.703 53.6777C291.538 56.1055 288.94 57.9507 286.005 59.1531C283.513 60.1196 281.449 60.4896 279.873 60.2676C278.123 60.0179 277.856 59.2641 277.823 58.6398C277.782 57.9091 278.224 56.568 280.541 54.339C282.504 52.5632 284.918 50.8151 287.714 49.1503C290.548 47.4716 293.091 46.075 295.288 45.0021L295.726 44.7894L295.689 44.2992C295.495 41.95 294.371 39.5591 292.344 37.196C290.391 34.9207 287.613 32.1553 284.084 28.9783C282.997 27.984 281.808 26.8834 280.541 25.6949C278.62 23.9653 277.676 22.1803 277.74 20.3906C277.805 18.587 279.27 16.4875 282.089 14.1522C285.282 11.5624 289.313 8.9866 294.076 6.48475C298.808 4.0014 303.143 2.36895 306.944 1.63828C307.971 1.4903 308.897 1.41631 309.712 1.41631C311.795 1.41631 313.172 1.89725 313.817 2.8499C314.674 4.11701 313.918 6.14716 311.592 8.85249C309.275 11.3173 306.151 13.9071 302.309 16.5569C298.444 19.2252 294.97 21.3987 292.008 23.0034C291.377 23.3086 290.884 23.3965 290.649 23.2393C290.4 23.0682 290.326 22.8971 290.363 22.6103C290.414 22.2681 290.681 21.9213 291.151 21.5837C291.487 21.4034 291.861 21.3062 292.229 21.2924C292.69 21.2924 293.114 21.1906 293.478 20.9918L293.51 20.9733C295.975 19.4518 298.969 17.4494 302.415 15.0262C305.902 12.566 308.657 10.2213 310.629 8.03395C311.61 6.85008 312.822 5.12977 312.126 3.83491C311.587 2.83602 310.182 2.50769 307.681 2.80365C305.004 3.19211 302.083 4.08464 298.997 5.44886C295.928 6.80846 292.975 8.34379 290.216 10.0179C287.443 11.7012 285.167 13.2458 283.439 14.61C281.269 16.3534 280.007 17.8148 279.579 19.0819C279.118 20.4276 279.288 21.6762 280.081 22.7953C280.776 23.7665 281.739 24.7746 282.914 25.7689C283.181 26.0186 283.462 26.2683 283.729 26.4995C284.296 27.0267 284.84 27.5354 285.374 28.0256C288.931 31.2165 291.764 34.0328 293.795 36.3867C295.763 38.662 296.901 40.9048 297.182 43.046L297.306 44.0125L298.19 43.6009C303.378 41.1777 308.763 38.8516 314.222 36.6919C314.545 36.5624 314.863 36.4329 315.185 36.3127C315.522 36.1786 315.858 36.0445 316.199 35.915C316.231 35.9011 316.263 35.8873 316.296 35.878C316.696 35.7393 316.945 35.7439 317.01 35.8179C317.194 36.0167 317.203 36.174 317.18 36.2988C317.166 36.3728 317.139 36.5301 316.807 36.6734L316.788 36.6873ZM288.134 50.2648C285.581 51.7863 283.324 53.4465 281.408 55.2038C279.749 56.8131 279.436 57.4559 279.468 57.96C279.486 58.2374 279.638 59.1207 280.997 59.1207H281.053C281.656 59.1115 282.389 59.0005 283.223 58.797C284.033 58.5981 284.628 58.427 285.029 58.2698C287.47 57.3911 289.732 55.9391 291.764 53.9505C293.828 51.9296 295.085 49.7654 295.491 47.5271L295.744 46.1444L294.482 46.7548C292.791 47.5734 290.654 48.7526 288.134 50.2602V50.2648ZM284.522 56.9379C284.181 57.0721 283.633 57.2293 282.886 57.4096C282.168 57.59 281.55 57.6825 281.057 57.6964C281.242 57.442 281.619 56.9934 282.384 56.2535C284.213 54.5748 286.397 52.9701 288.861 51.4949C290.677 50.4128 292.28 49.5018 293.662 48.7757C293.104 50.2001 292.137 51.592 290.764 52.9378C288.88 54.7829 286.784 56.1287 284.536 56.9333L284.517 56.9426L284.522 56.9379ZM294.482 46.7594C292.791 47.578 290.654 48.7572 288.134 50.2648C285.581 51.7863 283.324 53.4465 281.408 55.2038C279.749 56.8131 279.436 57.4559 279.468 57.96C279.486 58.2374 279.638 59.1207 280.997 59.1207H281.053C281.656 59.1115 282.389 59.0005 283.223 58.797C284.033 58.5981 284.628 58.427 285.029 58.2698C287.47 57.3911 289.732 55.9391 291.764 53.9505C293.828 51.9296 295.085 49.7654 295.491 47.5271L295.744 46.1444L294.482 46.7548V46.7594ZM284.522 56.9379C284.181 57.0721 283.633 57.2293 282.886 57.4096C282.168 57.59 281.55 57.6825 281.057 57.6964C281.242 57.442 281.619 56.9934 282.384 56.2535C284.213 54.5748 286.397 52.9701 288.861 51.4949C290.677 50.4128 292.28 49.5018 293.662 48.7757C293.104 50.2001 292.137 51.592 290.764 52.9378C288.88 54.7829 286.784 56.1287 284.536 56.9333L284.517 56.9426L284.522 56.9379ZM294.482 46.7594C292.791 47.578 290.654 48.7572 288.134 50.2648C285.581 51.7863 283.324 53.4465 281.408 55.2038C279.749 56.8131 279.436 57.4559 279.468 57.96C279.486 58.2374 279.638 59.1207 280.997 59.1207H281.053C281.656 59.1115 282.389 59.0005 283.223 58.797C284.033 58.5981 284.628 58.427 285.029 58.2698C287.47 57.3911 289.732 55.9391 291.764 53.9505C293.828 51.9296 295.085 49.7654 295.491 47.5271L295.744 46.1444L294.482 46.7548V46.7594ZM284.522 56.9379C284.181 57.0721 283.633 57.2293 282.886 57.4096C282.168 57.59 281.55 57.6825 281.057 57.6964C281.242 57.442 281.619 56.9934 282.384 56.2535C284.213 54.5748 286.397 52.9701 288.861 51.4949C290.677 50.4128 292.28 49.5018 293.662 48.7757C293.104 50.2001 292.137 51.592 290.764 52.9378C288.88 54.7829 286.784 56.1287 284.536 56.9333L284.517 56.9426L284.522 56.9379Z" fill="#4E4E4F"/>
<path d="M320.722 28.9945C320.621 28.7124 320.423 28.4719 320.133 28.2777C319.838 28.0835 319.492 28.0418 319.087 28.1436C318.902 28.1852 318.764 28.2268 318.663 28.2638C318.626 28.2823 318.566 28.3054 318.492 28.3239C318.423 28.3424 318.281 28.3656 318.059 28.3841C317.373 28.4026 316.94 28.717 316.756 29.3228C316.719 29.5679 316.756 29.8084 316.889 30.0535C317.023 30.2986 317.258 30.479 317.603 30.5992C317.963 30.7426 318.377 30.798 318.838 30.7657C319.299 30.7379 319.727 30.6131 320.114 30.3911C320.672 30.0443 320.874 29.5772 320.718 28.9945H320.722Z" fill="#4E4E4F"/>
<path d="M337.554 36.6291C337.554 36.6291 337.545 36.5921 337.54 36.5736C337.421 36.1851 337.153 35.8753 336.739 35.6533C336.702 35.6302 336.661 35.6117 336.619 35.5886C336.218 35.3897 335.804 35.4128 335.384 35.6579C335.384 35.6579 335.384 35.6579 335.375 35.6579C335.297 35.7042 335.219 35.7551 335.14 35.8152C335.099 35.8475 335.062 35.8799 335.02 35.9169C334.905 36.0002 334.795 36.0834 334.684 36.1759C333.947 36.7216 332.92 37.3181 331.842 37.9332C330.575 38.6546 329.23 39.3899 328.179 40.0697C326.032 41.4524 324.171 42.6455 322.6 43.6398C322.421 43.7416 322.199 43.8618 321.932 44.0005C321.246 44.4306 320.453 44.8607 319.555 45.2954C318.657 45.7301 317.91 46.0122 317.316 46.1417C316.726 46.2758 316.353 46.1972 316.215 45.9151C315.893 44.967 315.939 43.5982 316.363 41.8178C316.726 40.2917 317.173 38.9552 317.699 37.8222C317.786 37.6234 317.874 37.443 317.966 37.2626C318.242 37.0407 318.44 36.7771 318.569 36.4765C318.703 36.1805 318.763 35.8429 318.749 35.473C318.707 34.9874 318.431 34.5804 317.915 34.2567C317.445 33.9608 316.957 34.0024 316.445 34.3862C316.399 34.4186 316.353 34.4556 316.303 34.5018C316.105 34.7238 315.902 35.0151 315.69 35.362C315.524 35.6441 315.349 35.9678 315.169 36.3331C315.031 36.6198 314.888 36.9251 314.746 37.2626C314.699 37.3644 314.658 37.4707 314.612 37.5771C314.492 37.8731 314.372 38.1829 314.262 38.4928C314.16 38.7887 314.059 39.0847 313.962 39.3945C313.75 40.079 313.566 40.7911 313.41 41.531C313.073 43.0802 312.995 44.5185 313.165 45.8411C313.34 47.1683 313.976 48.1163 315.086 48.6805C315.976 49.0875 316.98 49.1152 318.113 48.7591C319.242 48.403 320.665 47.751 322.375 46.7983C323.982 45.9243 325.853 44.8191 327.986 43.4826C328.368 43.2421 328.755 42.997 329.156 42.7427C329.17 42.7334 329.184 42.7242 329.202 42.7149C329.626 42.4467 330.073 42.1739 330.543 41.901C331.611 41.2628 332.754 40.62 333.818 39.9957C334.887 39.3714 335.873 38.7702 336.619 38.2153C336.628 38.206 336.633 38.2014 336.642 38.1922C336.826 38.0581 336.997 37.9239 337.149 37.7945C337.158 37.7852 337.158 37.7852 337.163 37.776C337.163 37.776 337.163 37.776 337.172 37.7667C337.527 37.406 337.651 37.0268 337.54 36.6291H337.554Z" fill="#4E4E4F"/>
<path d="M321.407 28.8064L321.389 28.7601C321.241 28.33 320.946 27.9693 320.518 27.6872C320.057 27.382 319.518 27.3034 318.933 27.4514C318.717 27.4976 318.546 27.5485 318.403 27.604L318.307 27.641C318.307 27.641 318.238 27.6549 318.012 27.678C317.031 27.715 316.344 28.2283 316.072 29.1255L316.049 29.2133C315.98 29.6156 316.049 30.018 316.261 30.4064C316.478 30.8041 316.846 31.0955 317.353 31.2758C317.726 31.4238 318.145 31.4978 318.592 31.4978C318.689 31.4978 318.79 31.4978 318.883 31.4886C319.449 31.4516 319.984 31.2943 320.481 31.0076C321.32 30.4943 321.647 29.7128 321.398 28.811L321.407 28.8064Z" fill="#4E4E4F"/>
<path d="M319.761 29.7721C319.466 29.9386 319.153 30.0357 318.794 30.0588C318.439 30.0819 318.126 30.0449 317.863 29.9386L317.84 29.9293C317.725 29.8923 317.573 29.8183 317.518 29.7166C317.462 29.6149 317.453 29.5362 317.453 29.4854C317.536 29.2495 317.679 29.1154 318.075 29.1015H318.121C318.476 29.0646 318.605 29.0368 318.665 29.0183C318.766 28.9952 318.854 28.9628 318.941 28.9212C318.987 28.9027 319.084 28.8749 319.259 28.8333C319.531 28.764 319.66 28.8195 319.738 28.8703C319.89 28.9721 319.987 29.0831 320.038 29.2033C320.088 29.3975 320.088 29.564 319.761 29.7628V29.7721Z" fill="#4E4E4F"/>
<path d="M338.221 36.3605C338.212 36.3235 338.198 36.2865 338.184 36.2495C338.042 35.861 337.797 35.5327 337.461 35.2737C337.305 35.1488 337.125 35.0378 336.931 34.9454C336.862 34.9084 336.784 34.8806 336.71 34.8575C336.153 34.6586 335.558 34.728 335.006 35.0563C334.904 35.1118 334.808 35.1766 334.715 35.2506L334.679 35.2783C334.628 35.3199 334.577 35.3662 334.517 35.4124C334.462 35.4541 334.398 35.5003 334.342 35.5465C334.333 35.5558 334.328 35.5604 334.319 35.565C333.449 36.2171 332.066 36.994 330.73 37.7478C329.712 38.3212 328.657 38.9178 327.8 39.4727C325.589 40.8971 323.765 42.0671 322.24 43.0243C322.06 43.1215 321.853 43.2371 321.604 43.3712L321.567 43.3943C320.899 43.8105 320.121 44.2313 319.25 44.6522C318.412 45.0545 317.711 45.3227 317.172 45.4476C317.016 45.4846 316.91 45.4938 316.841 45.4938C316.629 44.6799 316.707 43.5007 317.066 41.9838C317.458 40.3375 317.956 38.8993 318.55 37.7154C319.186 37.142 319.503 36.3605 319.48 35.4541V35.4171C319.434 34.9222 319.199 34.2147 318.31 33.6551C317.859 33.3684 316.933 33.0308 315.855 33.9603L315.786 34.0297C315.601 34.2424 315.417 34.4922 315.224 34.7881C315.044 35.0748 314.855 35.3986 314.666 35.7731C314.519 36.0599 314.371 36.3743 314.219 36.7165C314.178 36.8044 314.141 36.8923 314.1 36.9848C313.966 37.2992 313.837 37.6229 313.713 37.9559C313.602 38.2472 313.501 38.5525 313.399 38.8623C313.307 39.1536 313.215 39.4496 313.132 39.7502C312.985 40.282 312.846 40.8277 312.731 41.3826C312.377 43.0012 312.294 44.5366 312.478 45.9378C312.681 47.5055 313.455 48.6431 314.809 49.3368C315.376 49.5957 315.979 49.7252 316.624 49.7252C317.172 49.7252 317.748 49.6327 318.343 49.4478C319.517 49.0778 321.001 48.398 322.733 47.4361C324.138 46.6731 325.718 45.7435 327.524 44.629C327.86 44.4209 328.206 44.2036 328.556 43.9816C328.878 43.7828 329.21 43.57 329.551 43.3573C329.616 43.3203 329.68 43.2741 329.749 43.2324C330.62 42.6868 331.624 42.1087 332.601 41.5491C332.652 41.5214 332.698 41.4936 332.748 41.4613C333.273 41.1561 333.799 40.8601 334.296 40.5641C335.075 39.6577 335.858 38.8762 336.641 38.2241C336.65 38.2149 336.655 38.2102 336.664 38.201C336.848 38.0669 337.019 37.9328 337.171 37.8033C337.18 37.794 337.18 37.794 337.185 37.7848C337.185 37.7848 337.185 37.7848 337.194 37.7755C337.364 37.6461 337.535 37.5212 337.705 37.4056C337.917 37.2622 338.111 37.1327 338.304 37.0218C338.323 36.809 338.295 36.5871 338.231 36.3697L338.221 36.3605Z" fill="#4E4E4F"/>
<path d="M336.17 37.6655C335.124 38.4332 333.558 39.335 332.033 40.209C331.89 40.2922 331.752 40.3755 331.609 40.4541C331.084 40.7593 330.563 41.0599 330.052 41.3605C329.614 41.6195 329.186 41.883 328.789 42.1374C328.757 42.1605 328.72 42.179 328.688 42.2021C326.113 43.8392 323.878 45.1711 322.045 46.1699C320.391 47.0902 319 47.7284 317.917 48.0706C316.95 48.3712 316.12 48.3573 315.425 48.0382C314.531 47.585 314.029 46.8313 313.886 45.7445C313.725 44.5051 313.803 43.1363 314.121 41.6749C314.319 40.7547 314.559 39.8714 314.84 39.0344C314.941 38.7245 315.052 38.4193 315.171 38.1233C315.245 37.9245 315.323 37.7349 315.406 37.5453C315.462 37.425 315.508 37.3048 315.558 37.1938C315.775 36.7082 315.987 36.2874 316.19 35.936C316.388 35.5799 316.577 35.2978 316.761 35.0758C316.779 35.0527 316.798 35.0342 316.816 35.0111C317.235 34.6642 317.438 34.7845 317.553 34.8631C317.959 35.122 318.032 35.3579 318.051 35.5151C318.06 35.8065 318.005 36.0608 317.889 36.2735C317.802 36.44 317.687 36.5788 317.53 36.7082L317.41 36.8007L317.341 36.9348C317.281 37.0551 317.217 37.1799 317.162 37.3048C317.014 37.61 316.876 37.9245 316.747 38.2528C316.332 39.2702 315.978 40.4032 315.678 41.6518C315.217 43.5849 315.176 45.0601 315.545 46.1468L315.581 46.2347C315.752 46.5815 316.226 47.1226 317.475 46.8451C318.124 46.6971 318.935 46.3965 319.87 45.9387C320.773 45.504 321.589 45.0601 322.294 44.6254C322.538 44.4913 322.75 44.3803 322.943 44.2693L322.985 44.2462C324.528 43.275 326.352 42.105 328.568 40.6761C329.153 40.2968 329.849 39.8945 330.558 39.4876C330.849 39.3211 331.139 39.1638 331.429 38.9974C331.719 38.8309 332.014 38.669 332.295 38.5072C333.401 37.8782 334.414 37.2771 335.165 36.7175C335.271 36.6296 335.382 36.5464 335.492 36.4631C335.525 36.4354 335.557 36.4076 335.585 36.3845C335.64 36.3429 335.686 36.3152 335.732 36.2874C335.732 36.2874 335.732 36.2874 335.741 36.2874C336.041 36.1163 336.22 36.1995 336.312 36.2504C336.713 36.44 336.819 36.6574 336.865 36.8007C336.888 36.8701 336.925 36.9996 336.736 37.2169C336.736 37.2262 336.727 37.2262 336.727 37.2262C336.713 37.2401 336.699 37.2586 336.681 37.2771C336.529 37.4065 336.359 37.5407 336.17 37.6794V37.6655Z" fill="#4E4E4F"/>
<path d="M364.257 36.0906C364.225 35.8131 364.115 35.5588 363.921 35.3322C363.82 35.2073 363.686 35.0871 363.534 34.9807C363.308 34.8189 363.064 34.7449 362.806 34.7541C362.571 34.7634 362.327 34.842 362.064 34.9807C361.995 35.0038 361.936 35.0316 361.866 35.0501C361.558 35.1657 361.244 35.2767 360.931 35.3969C354.707 37.6999 348.193 40.433 344.028 43.6008C344.07 43.4389 344.3 42.551 344.724 40.9463C345.153 39.337 345.346 38.0144 345.328 36.9831C345.245 36.1368 344.922 35.5357 344.346 35.1934C343.771 34.8512 343.268 34.8004 342.845 35.0455C342.6 34.3934 341.813 34.0142 340.472 33.8893C339.371 33.7876 338.122 34.1113 336.713 34.8605C336.409 35.0223 336.091 35.2073 335.764 35.4108C335.639 35.4894 335.515 35.5727 335.386 35.6605C335.386 35.6605 335.386 35.6605 335.377 35.6605C335.262 35.7438 335.142 35.827 335.022 35.9195C334.907 36.0027 334.796 36.086 334.686 36.1785C333.907 36.8028 333.106 37.5751 332.29 38.5046C331.562 39.3277 330.821 40.2711 330.07 41.3348C330.06 41.344 330.056 41.3579 330.047 41.3671C329.733 41.8388 329.457 42.2874 329.208 42.7175C328.95 43.1614 328.734 43.5777 328.549 43.9754C328.098 44.9604 327.858 45.7974 327.844 46.4957C327.817 47.7489 328.328 48.4796 329.388 48.6785C330.447 48.8819 331.673 48.5305 333.064 47.6148C335.363 45.9361 337.482 44.0309 339.417 41.9036C340.587 40.6688 341.467 39.7902 342.048 39.263C341.928 39.9521 341.614 41.1405 341.108 42.8146C340.606 44.4933 340.108 45.9916 339.629 47.3096C334.967 51.4809 330.765 55.9019 327.029 60.568C323.284 65.2341 321.155 70.5338 322.708 73.105C323.357 74.1825 324.564 74.4878 326.112 74.1548C327.669 73.8172 329.148 72.6888 330.922 71.1628C334.078 68.4482 337.054 61.3819 338.565 57.9367C340.076 54.4915 341.297 51.4485 342.227 48.7987C346.839 44.7985 353.196 41.4828 359.526 38.8607C359.83 38.7358 360.13 38.6109 360.434 38.4907C360.738 38.3705 361.037 38.2456 361.337 38.13C361.922 37.8988 362.502 37.6722 363.078 37.4594C363.253 37.3901 363.424 37.3253 363.594 37.2606C364.078 36.9184 364.294 36.5253 364.244 36.0906H364.257ZM333.557 41.4504C333.801 41.1405 334.05 40.84 334.294 40.5532C335.073 39.6468 335.856 38.8653 336.639 38.2132C336.648 38.204 336.653 38.1994 336.662 38.1901C336.833 38.0468 337.008 37.908 337.183 37.7739C337.183 37.7739 337.183 37.7739 337.192 37.7647C337.362 37.6352 337.533 37.5103 337.703 37.3947C337.915 37.2513 338.109 37.1219 338.302 37.0109C339.385 36.3773 340.182 36.2663 340.698 36.6779C340.274 37.0479 339.514 37.7832 338.431 38.8977C336.975 40.396 335.455 41.8851 333.861 43.3603C332.755 44.3916 331.825 45.1407 331.078 45.6078C331.581 44.3083 332.41 42.9256 333.557 41.4458V41.4504ZM327.094 70.802C326.085 71.4541 325.486 71.6113 325.297 71.2876C325.103 70.9639 325.191 70.2471 325.555 69.1326C326.379 66.7464 327.743 64.1983 329.641 61.4976C331.535 58.7969 336.404 54.288 337.312 53.4232C336.892 54.5192 334.428 61.4698 332.571 64.4295C330.719 67.3845 328.89 69.5118 327.098 70.802H327.094Z" fill="#4E4E4F"/>
<path d="M341.134 36.1235C340.222 35.3929 339.038 35.7906 338.181 36.253C337.942 36.3825 337.73 36.512 337.555 36.6322C337.453 36.697 337.361 36.7571 337.292 36.808C337.108 36.9375 336.923 37.0669 336.735 37.2103C336.735 37.2195 336.725 37.2196 336.725 37.2196C336.541 37.3629 336.357 37.5109 336.168 37.6681C335.389 38.3202 334.606 39.1017 333.832 39.9942C333.551 40.318 333.27 40.6602 332.994 41.0116C332.86 41.1874 332.722 41.3631 332.598 41.5388C331.607 42.8799 330.879 44.1609 330.414 45.354L329.635 47.3611L331.455 46.2234C332.243 45.7286 333.187 44.9702 334.344 43.8927C335.919 42.4314 337.462 40.9238 338.937 39.4069C340.001 38.3156 340.752 37.5849 341.157 37.2288L341.807 36.6646L341.134 36.1282V36.1235ZM338.425 38.9029C336.969 40.4012 335.449 41.8903 333.855 43.3655C332.75 44.3968 331.819 45.1459 331.073 45.613C331.575 44.3135 332.404 42.9308 333.551 41.451C333.795 41.1411 334.044 40.8405 334.288 40.5538C335.067 39.6474 335.85 38.8659 336.633 38.2138C336.642 38.2046 336.647 38.1999 336.656 38.1907C336.84 38.0566 337.011 37.9225 337.163 37.793C337.172 37.7837 337.172 37.7837 337.177 37.7745C337.177 37.7745 337.177 37.7745 337.186 37.7652C337.356 37.6358 337.527 37.5109 337.697 37.3953C337.909 37.2519 338.103 37.1224 338.296 37.0114C339.379 36.3779 340.176 36.2669 340.692 36.6785C340.268 37.0484 339.508 37.7837 338.425 38.8982V38.9029ZM336.813 52.9012C336.721 52.9891 336.587 53.1139 336.417 53.2758C334.878 54.7325 330.792 58.5986 329.046 61.0819C327.125 63.8242 325.719 66.4556 324.867 68.9112C324.416 70.2939 324.356 71.1124 324.674 71.6535C324.816 71.8986 325.047 72.0697 325.328 72.1345C325.415 72.1576 325.512 72.1668 325.613 72.1668C326.079 72.1668 326.659 71.9263 327.47 71.4038L327.502 71.3807C329.368 70.0349 331.275 67.8244 333.164 64.8046C334.818 62.1733 336.914 56.5083 337.707 54.3764C337.826 54.0573 337.914 53.8168 337.969 53.6735L339.121 50.6814L336.808 52.8966L336.813 52.9012ZM325.908 70.6407C325.931 70.4049 326.01 70.0072 326.217 69.369C327.019 67.0475 328.359 64.5364 330.211 61.9051C331.372 60.2541 333.745 57.8355 335.541 56.0921C334.56 58.6541 333.127 62.1825 331.962 64.0416C330.174 66.8903 328.401 68.9667 326.691 70.206C326.332 70.4373 326.083 70.5668 325.913 70.6407H325.908ZM341.134 36.1235C340.222 35.3929 339.038 35.7906 338.181 36.253C337.942 36.3825 337.73 36.512 337.555 36.6322C337.453 36.697 337.361 36.7571 337.292 36.808C337.108 36.9375 336.923 37.0669 336.735 37.2103C336.735 37.2195 336.725 37.2196 336.725 37.2196C336.541 37.3629 336.357 37.5109 336.168 37.6681C335.389 38.3202 334.606 39.1017 333.832 39.9942C333.551 40.318 333.27 40.6602 332.994 41.0116C332.86 41.1874 332.722 41.3631 332.598 41.5388C331.607 42.8799 330.879 44.1609 330.414 45.354L329.635 47.3611L331.455 46.2234C332.243 45.7286 333.187 44.9702 334.344 43.8927C335.919 42.4314 337.462 40.9238 338.937 39.4069C340.001 38.3156 340.752 37.5849 341.157 37.2288L341.807 36.6646L341.134 36.1282V36.1235ZM338.425 38.9029C336.969 40.4012 335.449 41.8903 333.855 43.3655C332.75 44.3968 331.819 45.1459 331.073 45.613C331.575 44.3135 332.404 42.9308 333.551 41.451C333.795 41.1411 334.044 40.8405 334.288 40.5538C335.067 39.6474 335.85 38.8659 336.633 38.2138C336.642 38.2046 336.647 38.1999 336.656 38.1907C336.84 38.0566 337.011 37.9225 337.163 37.793C337.172 37.7837 337.172 37.7837 337.177 37.7745C337.177 37.7745 337.177 37.7745 337.186 37.7652C337.356 37.6358 337.527 37.5109 337.697 37.3953C337.909 37.2519 338.103 37.1224 338.296 37.0114C339.379 36.3779 340.176 36.2669 340.692 36.6785C340.268 37.0484 339.508 37.7837 338.425 38.8982V38.9029ZM336.813 52.9012C336.721 52.9891 336.587 53.1139 336.417 53.2758C334.878 54.7325 330.792 58.5986 329.046 61.0819C327.125 63.8242 325.719 66.4556 324.867 68.9112C324.416 70.2939 324.356 71.1124 324.674 71.6535C324.816 71.8986 325.047 72.0697 325.328 72.1345C325.415 72.1576 325.512 72.1668 325.613 72.1668C326.079 72.1668 326.659 71.9263 327.47 71.4038L327.502 71.3807C329.368 70.0349 331.275 67.8244 333.164 64.8046C334.818 62.1733 336.914 56.5083 337.707 54.3764C337.826 54.0573 337.914 53.8168 337.969 53.6735L339.121 50.6814L336.808 52.8966L336.813 52.9012ZM325.908 70.6407C325.931 70.4049 326.01 70.0072 326.217 69.369C327.019 67.0475 328.359 64.5364 330.211 61.9051C331.372 60.2541 333.745 57.8355 335.541 56.0921C334.56 58.6541 333.127 62.1825 331.962 64.0416C330.174 66.8903 328.401 68.9667 326.691 70.206C326.332 70.4373 326.083 70.5668 325.913 70.6407H325.908ZM336.813 52.9012C336.721 52.9891 336.587 53.1139 336.417 53.2758C334.878 54.7325 330.792 58.5986 329.046 61.0819C327.125 63.8242 325.719 66.4556 324.867 68.9112C324.416 70.2939 324.356 71.1124 324.674 71.6535C324.816 71.8986 325.047 72.0697 325.328 72.1345C325.415 72.1576 325.512 72.1668 325.613 72.1668C326.079 72.1668 326.659 71.9263 327.47 71.4038L327.502 71.3807C329.368 70.0349 331.275 67.8244 333.164 64.8046C334.818 62.1733 336.914 56.5083 337.707 54.3764C337.826 54.0573 337.914 53.8168 337.969 53.6735L339.121 50.6814L336.808 52.8966L336.813 52.9012ZM325.908 70.6407C325.931 70.4049 326.01 70.0072 326.217 69.369C327.019 67.0475 328.359 64.5364 330.211 61.9051C331.372 60.2541 333.745 57.8355 335.541 56.0921C334.56 58.6541 333.127 62.1825 331.962 64.0416C330.174 66.8903 328.401 68.9667 326.691 70.206C326.332 70.4373 326.083 70.5668 325.913 70.6407H325.908ZM341.134 36.1235C340.222 35.3929 339.038 35.7906 338.181 36.253C337.942 36.3825 337.73 36.512 337.555 36.6322C337.453 36.697 337.361 36.7571 337.292 36.808C337.108 36.9375 336.923 37.0669 336.735 37.2103C336.735 37.2195 336.725 37.2196 336.725 37.2196C336.541 37.3629 336.357 37.5109 336.168 37.6681C335.389 38.3202 334.606 39.1017 333.832 39.9942C333.551 40.318 333.27 40.6602 332.994 41.0116C332.86 41.1874 332.722 41.3631 332.598 41.5388C331.607 42.8799 330.879 44.1609 330.414 45.354L329.635 47.3611L331.455 46.2234C332.243 45.7286 333.187 44.9702 334.344 43.8927C335.919 42.4314 337.462 40.9238 338.937 39.4069C340.001 38.3156 340.752 37.5849 341.157 37.2288L341.807 36.6646L341.134 36.1282V36.1235ZM338.425 38.9029C336.969 40.4012 335.449 41.8903 333.855 43.3655C332.75 44.3968 331.819 45.1459 331.073 45.613C331.575 44.3135 332.404 42.9308 333.551 41.451C333.795 41.1411 334.044 40.8405 334.288 40.5538C335.067 39.6474 335.85 38.8659 336.633 38.2138C336.642 38.2046 336.647 38.1999 336.656 38.1907C336.84 38.0566 337.011 37.9225 337.163 37.793C337.172 37.7837 337.172 37.7837 337.177 37.7745C337.177 37.7745 337.177 37.7745 337.186 37.7652C337.356 37.6358 337.527 37.5109 337.697 37.3953C337.909 37.2519 338.103 37.1224 338.296 37.0114C339.379 36.3779 340.176 36.2669 340.692 36.6785C340.268 37.0484 339.508 37.7837 338.425 38.8982V38.9029ZM341.134 36.1235C340.222 35.3929 339.038 35.7906 338.181 36.253C337.942 36.3825 337.73 36.512 337.555 36.6322C337.453 36.697 337.361 36.7571 337.292 36.808C337.108 36.9375 336.923 37.0669 336.735 37.2103C336.735 37.2195 336.725 37.2196 336.725 37.2196C336.541 37.3629 336.357 37.5109 336.168 37.6681C335.389 38.3202 334.606 39.1017 333.832 39.9942C333.551 40.318 333.27 40.6602 332.994 41.0116C332.86 41.1874 332.722 41.3631 332.598 41.5388C331.607 42.8799 330.879 44.1609 330.414 45.354L329.635 47.3611L331.455 46.2234C332.243 45.7286 333.187 44.9702 334.344 43.8927C335.919 42.4314 337.462 40.9238 338.937 39.4069C340.001 38.3156 340.752 37.5849 341.157 37.2288L341.807 36.6646L341.134 36.1282V36.1235ZM338.425 38.9029C336.969 40.4012 335.449 41.8903 333.855 43.3655C332.75 44.3968 331.819 45.1459 331.073 45.613C331.575 44.3135 332.404 42.9308 333.551 41.451C333.795 41.1411 334.044 40.8405 334.288 40.5538C335.067 39.6474 335.85 38.8659 336.633 38.2138C336.642 38.2046 336.647 38.1999 336.656 38.1907C336.84 38.0566 337.011 37.9225 337.163 37.793C337.172 37.7837 337.172 37.7837 337.177 37.7745C337.177 37.7745 337.177 37.7745 337.186 37.7652C337.356 37.6358 337.527 37.5109 337.697 37.3953C337.909 37.2519 338.103 37.1224 338.296 37.0114C339.379 36.3779 340.176 36.2669 340.692 36.6785C340.268 37.0484 339.508 37.7837 338.425 38.8982V38.9029ZM336.417 53.2758C334.878 54.7325 330.792 58.5986 329.046 61.0819C327.125 63.8242 325.719 66.4556 324.867 68.9112C324.416 70.2939 324.356 71.1124 324.674 71.6535C324.816 71.8986 325.047 72.0697 325.328 72.1345C325.415 72.1576 325.512 72.1668 325.613 72.1668C326.079 72.1668 326.659 71.9263 327.47 71.4038L327.502 71.3807C329.368 70.0349 331.275 67.8244 333.164 64.8046C334.818 62.1733 336.914 56.5083 337.707 54.3764C337.826 54.0573 337.914 53.8168 337.969 53.6735L339.121 50.6814L336.808 52.8966C336.716 52.9844 336.582 53.1093 336.412 53.2712L336.417 53.2758ZM325.908 70.6407C325.931 70.4049 326.01 70.0072 326.217 69.369C327.019 67.0475 328.359 64.5364 330.211 61.9051C331.372 60.2541 333.745 57.8355 335.541 56.0921C334.56 58.6541 333.127 62.1825 331.962 64.0416C330.174 66.8903 328.401 68.9667 326.691 70.206C326.332 70.4373 326.083 70.5668 325.913 70.6407H325.908ZM364.961 36.0079C364.929 35.7397 364.85 35.49 364.721 35.2588C364.602 35.0275 364.427 34.8102 364.21 34.6206C364.123 34.542 364.03 34.4726 363.934 34.3986C363.736 34.2645 363.491 34.1396 363.197 34.0795C362.948 34.0287 362.658 34.024 362.34 34.1026C362.16 34.1489 361.971 34.2229 361.764 34.3292C361.626 34.3801 361.487 34.431 361.345 34.4818C356.051 36.4241 349.731 38.9399 345.197 41.9042C345.262 41.6683 345.331 41.4093 345.4 41.1319C345.838 39.4809 346.05 38.0843 346.031 36.9744V36.919C345.925 35.8322 345.478 35.0507 344.704 34.5836C344.087 34.2136 343.567 34.1396 343.152 34.1951C342.659 33.6309 341.793 33.2934 340.531 33.1777C339.015 33.039 337.333 33.5708 335.38 34.8056C335.256 34.8842 335.131 34.9674 335.002 35.0553C334.841 35.1663 334.68 35.2819 334.514 35.4114C334.459 35.453 334.394 35.4992 334.339 35.5455C334.33 35.5547 334.325 35.5594 334.316 35.564C333.51 36.2022 332.685 36.9929 331.842 37.9363C331.418 38.4127 330.99 38.9306 330.557 39.4855C330.202 39.9434 329.843 40.4243 329.479 40.9376C329.188 41.377 328.921 41.8024 328.686 42.2048C328.424 42.6533 328.193 43.0788 328 43.4857C327.806 43.8881 327.645 44.2673 327.521 44.6234C327.272 45.3078 327.148 45.9275 327.134 46.4778C327.083 48.6467 328.442 49.2294 329.258 49.3866C330.492 49.6224 331.906 49.234 333.459 48.2212L333.487 48.1981C335.818 46.4917 337.988 44.5401 339.936 42.4036C340.222 42.103 340.489 41.8209 340.743 41.5619C340.65 41.8903 340.544 42.2417 340.434 42.6163C339.969 44.1748 339.494 45.6176 339.029 46.9032C334.422 51.0422 330.197 55.4863 326.48 60.1247C322.946 64.5318 320.223 70.3725 322.108 73.4848C322.554 74.2247 323.402 75.0063 324.996 75.0063C325.379 75.0063 325.802 74.96 326.272 74.8583C327.908 74.5068 329.387 73.4386 331.4 71.7136C334.496 69.0499 337.287 62.6774 338.96 58.8622L339.236 58.2332C340.715 54.8666 341.931 51.8376 342.857 49.2201C346.745 45.8858 352.223 42.7227 359.193 39.7861C359.493 39.6613 359.792 39.5364 360.096 39.4116C360.396 39.2867 360.7 39.1665 361.004 39.0416C361.58 38.8104 362.169 38.5745 362.768 38.3479C363.058 38.2369 363.353 38.1213 363.653 38.0103C363.722 37.9872 363.791 37.9548 363.865 37.9317L363.952 37.8993L364.026 37.8439C364.505 37.5063 364.758 37.1409 364.883 36.7941C364.984 36.5028 364.998 36.2299 364.97 36.0033L364.961 36.0079ZM363.261 36.6276C362.736 36.8265 362.215 37.0207 361.709 37.2242C361.404 37.3398 361.096 37.46 360.792 37.5803C360.488 37.7005 360.188 37.8254 359.889 37.941C352.094 41.1226 346.004 44.5864 341.765 48.2582L341.622 48.3831L341.563 48.5634C340.641 51.1855 339.416 54.2423 337.918 57.6552L337.647 58.2841C336.131 61.7432 333.316 68.1713 330.465 70.6222C328.631 72.1992 327.304 73.1657 325.968 73.4571C324.015 73.8779 323.494 73.0224 323.324 72.7403C322.043 70.6222 323.84 65.6925 327.59 61.0172C331.294 56.3973 335.509 51.9624 340.111 47.8466L340.245 47.7264L340.305 47.5599C340.802 46.2049 341.305 44.6789 341.802 43.0279C342.318 41.303 342.631 40.1191 342.76 39.3931L343.12 37.349L341.581 38.741C340.973 39.2867 340.075 40.1885 338.9 41.4278C337.011 43.4996 334.915 45.391 332.671 47.0281C331.45 47.8235 330.395 48.1426 329.534 47.9807C329.018 47.879 328.539 47.6339 328.566 46.5148C328.585 45.687 328.981 44.5817 329.75 43.2268C329.981 42.8106 330.253 42.3666 330.561 41.9042C330.594 41.8533 330.626 41.8024 330.663 41.7515C330.985 41.2983 331.298 40.8683 331.616 40.4613C332.846 38.8751 334.035 37.6173 335.173 36.7201C335.279 36.6322 335.389 36.549 335.5 36.4658C335.583 36.4103 335.661 36.3455 335.744 36.29C335.744 36.29 335.744 36.29 335.753 36.29C335.887 36.1975 336.016 36.1097 336.149 36.0264C336.352 35.8969 336.555 35.7767 336.753 35.6703C336.997 35.5316 337.237 35.4067 337.472 35.2911C338.577 34.7639 339.563 34.5373 340.415 34.616C341.411 34.7084 342.055 34.9582 342.184 35.3096L342.479 36.0912L343.203 35.675C343.272 35.638 343.479 35.5177 343.986 35.823C344.354 36.0403 344.557 36.4426 344.622 37.0438C344.635 38.015 344.442 39.2728 344.036 40.785C343.613 42.399 343.382 43.2869 343.341 43.4487L342.843 45.4234L344.465 44.1933C348.537 41.0949 354.973 38.408 360.557 36.3224C360.865 36.2022 361.17 36.0958 361.474 35.9802C361.759 35.8784 362.036 35.7721 362.312 35.675L362.404 35.6333H362.413C362.791 35.4206 362.985 35.4854 363.127 35.5871C363.473 35.8322 363.537 36.0496 363.556 36.1929C363.556 36.216 363.565 36.2669 363.533 36.3409C363.501 36.4149 363.432 36.5212 363.27 36.6461L363.261 36.6276ZM338.181 36.2577C337.942 36.3871 337.73 36.5166 337.555 36.6369C337.453 36.7016 337.361 36.7617 337.292 36.8126C337.108 36.9421 336.923 37.0716 336.735 37.2149C336.735 37.2242 336.725 37.2242 336.725 37.2242C336.541 37.3675 336.357 37.5155 336.168 37.6727C335.389 38.3248 334.606 39.1063 333.832 39.9989C333.551 40.3226 333.27 40.6648 332.994 41.0163C332.86 41.192 332.722 41.3677 332.598 41.5434C331.607 42.8846 330.879 44.1655 330.414 45.3587L329.635 47.3657L331.455 46.2281C332.243 45.7332 333.187 44.9748 334.344 43.8973C335.919 42.436 337.462 40.9284 338.937 39.4116C340.001 38.3202 340.752 37.5895 341.157 37.2334L341.807 36.6692L341.134 36.1328C340.222 35.4021 339.038 35.7998 338.181 36.2623V36.2577ZM338.425 38.9075C336.969 40.4058 335.449 41.8949 333.855 43.3701C332.75 44.4014 331.819 45.1506 331.073 45.6176C331.575 44.3181 332.404 42.9354 333.551 41.4556C333.795 41.1457 334.044 40.8451 334.288 40.5584C335.067 39.652 335.85 38.8705 336.633 38.2184C336.642 38.2092 336.647 38.2046 336.656 38.1953C336.84 38.0612 337.011 37.9271 337.163 37.7976C337.172 37.7884 337.172 37.7884 337.177 37.7791C337.177 37.7791 337.177 37.7791 337.186 37.7699C337.356 37.6404 337.527 37.5155 337.697 37.3999C337.909 37.2565 338.103 37.1271 338.296 37.0161C339.379 36.3825 340.176 36.2715 340.692 36.6831C340.268 37.0531 339.508 37.7884 338.425 38.9029V38.9075ZM336.417 53.2804C334.878 54.7371 330.792 58.6032 329.046 61.0865C327.125 63.8289 325.719 66.4602 324.867 68.9158C324.416 70.2985 324.356 71.1171 324.674 71.6581C324.816 71.9032 325.047 72.0743 325.328 72.1391C325.415 72.1622 325.512 72.1715 325.613 72.1715C326.079 72.1715 326.659 71.931 327.47 71.4084L327.502 71.3853C329.368 70.0396 331.275 67.8291 333.164 64.8093C334.818 62.1779 336.914 56.5129 337.707 54.381C337.826 54.0619 337.914 53.8215 337.969 53.6781L339.121 50.6861L336.808 52.9012C336.716 52.9891 336.582 53.1139 336.412 53.2758L336.417 53.2804ZM325.908 70.6454C325.931 70.4095 326.01 70.0118 326.217 69.3736C327.019 67.0521 328.359 64.541 330.211 61.9097C331.372 60.2588 333.745 57.8402 335.541 56.0967C334.56 58.6587 333.127 62.1872 331.962 64.0462C330.174 66.8949 328.401 68.9713 326.691 70.2107C326.332 70.4419 326.083 70.5714 325.913 70.6454H325.908ZM336.813 52.9058C336.721 52.9937 336.587 53.1185 336.417 53.2804C334.878 54.7371 330.792 58.6032 329.046 61.0865C327.125 63.8289 325.719 66.4602 324.867 68.9158C324.416 70.2985 324.356 71.1171 324.674 71.6581C324.816 71.9032 325.047 72.0743 325.328 72.1391C325.415 72.1622 325.512 72.1715 325.613 72.1715C326.079 72.1715 326.659 71.931 327.47 71.4084L327.502 71.3853C329.368 70.0396 331.275 67.8291 333.164 64.8093C334.818 62.1779 336.914 56.5129 337.707 54.381C337.826 54.0619 337.914 53.8215 337.969 53.6781L339.121 50.6861L336.808 52.9012L336.813 52.9058ZM325.908 70.6454C325.931 70.4095 326.01 70.0118 326.217 69.3736C327.019 67.0521 328.359 64.541 330.211 61.9097C331.372 60.2588 333.745 57.8402 335.541 56.0967C334.56 58.6587 333.127 62.1872 331.962 64.0462C330.174 66.8949 328.401 68.9713 326.691 70.2107C326.332 70.4419 326.083 70.5714 325.913 70.6454H325.908ZM341.134 36.1282C340.222 35.3975 339.038 35.7952 338.181 36.2577C337.942 36.3871 337.73 36.5166 337.555 36.6369C337.453 36.7016 337.361 36.7617 337.292 36.8126C337.108 36.9421 336.923 37.0716 336.735 37.2149C336.735 37.2242 336.725 37.2242 336.725 37.2242C336.541 37.3675 336.357 37.5155 336.168 37.6727C335.389 38.3248 334.606 39.1063 333.832 39.9989C333.551 40.3226 333.27 40.6648 332.994 41.0163C332.86 41.192 332.722 41.3677 332.598 41.5434C331.607 42.8846 330.879 44.1655 330.414 45.3587L329.635 47.3657L331.455 46.2281C332.243 45.7332 333.187 44.9748 334.344 43.8973C335.919 42.436 337.462 40.9284 338.937 39.4116C340.001 38.3202 340.752 37.5895 341.157 37.2334L341.807 36.6692L341.134 36.1328V36.1282ZM338.425 38.9075C336.969 40.4058 335.449 41.8949 333.855 43.3701C332.75 44.4014 331.819 45.1506 331.073 45.6176C331.575 44.3181 332.404 42.9354 333.551 41.4556C333.795 41.1457 334.044 40.8451 334.288 40.5584C335.067 39.652 335.85 38.8705 336.633 38.2184C336.642 38.2092 336.647 38.2046 336.656 38.1953C336.84 38.0612 337.011 37.9271 337.163 37.7976C337.172 37.7884 337.172 37.7884 337.177 37.7791C337.177 37.7791 337.177 37.7791 337.186 37.7699C337.356 37.6404 337.527 37.5155 337.697 37.3999C337.909 37.2565 338.103 37.1271 338.296 37.0161C339.379 36.3825 340.176 36.2715 340.692 36.6831C340.268 37.0531 339.508 37.7884 338.425 38.9029V38.9075ZM341.134 36.1282C340.222 35.3975 339.038 35.7952 338.181 36.2577C337.942 36.3871 337.73 36.5166 337.555 36.6369C337.453 36.7016 337.361 36.7617 337.292 36.8126C337.108 36.9421 336.923 37.0716 336.735 37.2149C336.735 37.2242 336.725 37.2242 336.725 37.2242C336.541 37.3675 336.357 37.5155 336.168 37.6727C335.389 38.3248 334.606 39.1063 333.832 39.9989C333.551 40.3226 333.27 40.6648 332.994 41.0163C332.86 41.192 332.722 41.3677 332.598 41.5434C331.607 42.8846 330.879 44.1655 330.414 45.3587L329.635 47.3657L331.455 46.2281C332.243 45.7332 333.187 44.9748 334.344 43.8973C335.919 42.436 337.462 40.9284 338.937 39.4116C340.001 38.3202 340.752 37.5895 341.157 37.2334L341.807 36.6692L341.134 36.1328V36.1282ZM338.425 38.9075C336.969 40.4058 335.449 41.8949 333.855 43.3701C332.75 44.4014 331.819 45.1506 331.073 45.6176C331.575 44.3181 332.404 42.9354 333.551 41.4556C333.795 41.1457 334.044 40.8451 334.288 40.5584C335.067 39.652 335.85 38.8705 336.633 38.2184C336.642 38.2092 336.647 38.2046 336.656 38.1953C336.84 38.0612 337.011 37.9271 337.163 37.7976C337.172 37.7884 337.172 37.7884 337.177 37.7791C337.177 37.7791 337.177 37.7791 337.186 37.7699C337.356 37.6404 337.527 37.5155 337.697 37.3999C337.909 37.2565 338.103 37.1271 338.296 37.0161C339.379 36.3825 340.176 36.2715 340.692 36.6831C340.268 37.0531 339.508 37.7884 338.425 38.9029V38.9075ZM336.813 52.9058C336.721 52.9937 336.587 53.1185 336.417 53.2804C334.878 54.7371 330.792 58.6032 329.046 61.0865C327.125 63.8289 325.719 66.4602 324.867 68.9158C324.416 70.2985 324.356 71.1171 324.674 71.6581C324.816 71.9032 325.047 72.0743 325.328 72.1391C325.415 72.1622 325.512 72.1715 325.613 72.1715C326.079 72.1715 326.659 71.931 327.47 71.4084L327.502 71.3853C329.368 70.0396 331.275 67.8291 333.164 64.8093C334.818 62.1779 336.914 56.5129 337.707 54.381C337.826 54.0619 337.914 53.8215 337.969 53.6781L339.121 50.6861L336.808 52.9012L336.813 52.9058ZM325.908 70.6454C325.931 70.4095 326.01 70.0118 326.217 69.3736C327.019 67.0521 328.359 64.541 330.211 61.9097C331.372 60.2588 333.745 57.8402 335.541 56.0967C334.56 58.6587 333.127 62.1872 331.962 64.0462C330.174 66.8949 328.401 68.9713 326.691 70.2107C326.332 70.4419 326.083 70.5714 325.913 70.6454H325.908Z" fill="#4E4E4F"/>
<path d="M395.259 38.3693C395.18 37.9531 394.918 37.6294 394.471 37.3982C394.029 37.167 393.554 37.2317 393.052 37.597C390.495 39.6457 388.229 41.3382 386.261 42.684C384.294 44.0297 382.359 44.9962 380.466 45.5835C377.255 46.4344 375.182 45.3246 374.233 42.2446C373.989 41.3567 373.8 40.4318 373.662 39.4792C373.519 38.5497 373.325 37.6387 373.086 36.7461C372.888 36.0386 372.496 35.4235 371.925 34.8963C371.349 34.3691 370.566 34.272 369.58 34.5957C368.728 34.9796 367.719 35.7611 366.539 36.9496C365.36 38.1335 363.964 39.6781 362.352 41.5787C362.766 40.381 363.195 39.1925 363.637 38.0132C363.817 37.5323 364.005 37.0467 364.194 36.5704C364.365 36.1311 364.54 35.6964 364.72 35.2617C364.812 35.0166 364.913 34.7807 365.01 34.5356C365.171 34.1055 365.116 33.7448 364.844 33.4396C364.572 33.1344 364.194 32.9957 363.706 33.028C363.222 33.0558 362.84 33.2963 362.554 33.7448C362.485 33.8419 362.416 33.9622 362.333 34.1055C362.195 34.3553 362.034 34.6744 361.854 35.0582C361.734 35.331 361.596 35.6316 361.453 35.9646C361.251 36.4363 361.029 36.9774 360.79 37.5785C360.753 37.6664 360.721 37.7589 360.684 37.8514C360.601 38.0641 360.518 38.2768 360.44 38.4896C360.32 38.7948 360.2 39.0954 360.085 39.4052C359.458 41.0515 358.85 42.7071 358.27 44.3673C357.726 45.9674 357.146 47.5443 356.547 49.1028C356.427 49.5236 356.478 49.9167 356.713 50.2681C356.943 50.6242 357.312 50.8323 357.805 50.8924C358.298 50.9526 358.749 50.7398 359.15 50.2543C359.753 49.4265 360.813 48.0391 362.329 46.1107C363.84 44.1777 365.392 42.3048 366.986 40.492C368.58 38.6838 369.635 37.6248 370.165 37.3196C370.326 37.6017 370.506 38.4711 370.709 39.9324C370.911 41.3475 371.234 42.6747 371.681 43.9095C372.349 45.6529 373.413 46.9293 374.887 47.7339C376.361 48.5478 378.144 48.7467 380.24 48.3397C382.682 47.7524 385.253 46.5685 387.957 44.7881C390.656 43.0077 392.941 41.255 394.821 39.5347C395.208 39.1694 395.355 38.7809 395.273 38.3647L395.259 38.3693Z" fill="#4E4E4F"/>
<path d="M395.966 38.2309C395.879 37.7916 395.611 37.1812 394.81 36.7603C394.331 36.506 393.561 36.3441 392.64 37.0101L392.612 37.0332C390.088 39.0541 387.816 40.7513 385.868 42.0877C383.974 43.3872 382.085 44.3306 380.293 44.8856C377.465 45.6347 375.756 44.7283 374.931 42.0461C374.696 41.186 374.512 40.2888 374.374 39.3639C374.226 38.3928 374.023 37.4494 373.779 36.543C373.544 35.7152 373.084 34.9753 372.406 34.3556C371.872 33.87 370.909 33.3937 369.361 33.907L369.292 33.9301C368.362 34.351 367.297 35.1695 366.044 36.4274C365.514 36.9592 364.939 37.5696 364.312 38.2494C364.496 37.7592 364.685 37.269 364.874 36.7881C365.141 36.1083 365.409 35.4424 365.685 34.7764C365.943 34.1012 365.832 33.4538 365.381 32.9498C365.091 32.626 364.556 32.2468 363.672 32.3023C362.958 32.3486 362.368 32.7093 361.976 33.329C361.801 33.5879 361.589 33.9671 361.35 34.4758C361.221 34.7487 361.083 35.0493 360.935 35.3961C360.815 35.6736 360.691 35.9742 360.553 36.3025C360.392 36.691 360.217 37.121 360.037 37.5881C359.991 37.7084 359.945 37.8193 359.903 37.9396C359.783 38.2448 359.659 38.5546 359.549 38.8599C359.429 39.1651 359.309 39.4749 359.194 39.7801C358.636 41.2553 358.107 42.7074 357.609 44.1364C357.088 45.6671 356.513 47.2487 355.895 48.8441L355.872 48.9042C355.693 49.5286 355.78 50.139 356.126 50.6616C356.37 51.0315 356.84 51.494 357.724 51.6003C357.798 51.6096 357.885 51.6142 357.968 51.6142C358.461 51.6142 359.106 51.4338 359.705 50.7078L359.728 50.6708C360.35 49.8291 361.41 48.4372 362.893 46.5458C364.395 44.622 365.952 42.7398 367.523 40.9594C368.596 39.7385 369.306 38.9986 369.771 38.5546C369.836 38.8969 369.914 39.3732 370.002 40.0252C370.214 41.4819 370.55 42.8693 371.015 44.1595C371.743 46.0556 372.927 47.466 374.544 48.3586C376.156 49.2465 378.119 49.4731 380.409 49.0337C382.91 48.4279 385.587 47.2024 388.346 45.3804C391.055 43.6 393.395 41.8103 395.312 40.0483C396.021 39.3732 396.063 38.6841 395.975 38.2263L395.966 38.2309ZM394.335 39.0078C392.479 40.705 390.198 42.4531 387.558 44.1919C384.933 45.9215 382.413 47.0822 380.1 47.6418C378.179 48.0117 376.534 47.8314 375.221 47.1099C373.89 46.3747 372.945 45.2463 372.342 43.6647C371.913 42.4808 371.6 41.1906 371.407 39.831C371.126 37.7823 370.928 37.232 370.776 36.9638L370.421 36.3395L369.799 36.7002C369.412 36.9222 368.652 37.5049 366.445 40.016C364.86 41.8195 363.28 43.7202 361.76 45.6671C360.276 47.5585 359.208 48.9551 358.581 49.8153C358.277 50.1806 358.047 50.2037 357.881 50.1852C357.512 50.139 357.374 49.9864 357.305 49.88C357.19 49.7043 357.167 49.5424 357.217 49.3297C357.839 47.7296 358.415 46.1342 358.936 44.6035C359.572 42.786 360.258 40.9224 360.986 39.0356C361.101 38.7304 361.216 38.4298 361.336 38.1292C361.336 38.1292 361.336 38.1199 361.336 38.1153C361.465 37.7916 361.58 37.4956 361.695 37.2228C361.963 36.5661 362.188 36.0343 362.377 35.6135C362.538 35.2574 362.667 34.9753 362.783 34.7533C362.935 34.4481 363.054 34.2539 363.142 34.1197C363.151 34.1013 363.165 34.0874 363.174 34.0735C363.368 33.796 363.566 33.7498 363.736 33.7359C364.072 33.7128 364.215 33.8145 364.294 33.907C364.354 33.9718 364.413 34.0411 364.33 34.2492C364.28 34.3695 364.229 34.4897 364.183 34.6099C364.082 34.8504 363.985 35.0909 363.893 35.3267C363.759 35.6505 363.635 35.9788 363.501 36.3118C363.354 36.6863 363.211 37.0656 363.064 37.4494C362.953 37.7407 362.842 38.0413 362.732 38.3373C362.363 39.3269 361.999 40.3258 361.658 41.3293L360.41 44.9318L362.875 42.023C364.469 40.1408 365.865 38.5963 367.026 37.4355C368.127 36.3349 369.066 35.5996 369.822 35.2435C370.771 34.9429 371.195 35.1926 371.43 35.41C371.909 35.8539 372.222 36.3488 372.383 36.9222C372.614 37.7731 372.803 38.6656 372.941 39.572C373.084 40.5478 373.282 41.5051 373.54 42.4438C374.599 45.8891 377.055 47.2117 380.662 46.2544C382.62 45.6486 384.633 44.6405 386.646 43.2624C388.627 41.912 390.922 40.1963 393.465 38.1569C393.856 37.8795 394.04 37.9766 394.133 38.0228C394.455 38.1893 394.524 38.365 394.547 38.4991C394.561 38.5685 394.593 38.7396 394.317 39.0032L394.335 39.0078Z" fill="#4E4E4F"/>
</g>
<path d="M5.562 103.144C4.602 103.144 3.684 103 2.808 102.712C1.932 102.412 1.242 102.028 0.738 101.56L1.404 100.156C1.884 100.576 2.496 100.924 3.24 101.2C3.984 101.476 4.758 101.614 5.562 101.614C6.294 101.614 6.888 101.53 7.344 101.362C7.8 101.194 8.136 100.966 8.352 100.678C8.568 100.378 8.676 100.042 8.676 99.67C8.676 99.238 8.532 98.89 8.244 98.626C7.968 98.362 7.602 98.152 7.146 97.996C6.702 97.828 6.21 97.684 5.67 97.564C5.13 97.444 4.584 97.306 4.032 97.15C3.492 96.982 2.994 96.772 2.538 96.52C2.094 96.268 1.734 95.932 1.458 95.512C1.182 95.08 1.044 94.528 1.044 93.856C1.044 93.208 1.212 92.614 1.548 92.074C1.896 91.522 2.424 91.084 3.132 90.76C3.852 90.424 4.764 90.256 5.868 90.256C6.6 90.256 7.326 90.352 8.046 90.544C8.766 90.736 9.39 91.012 9.918 91.372L9.324 92.812C8.784 92.452 8.214 92.194 7.614 92.038C7.014 91.87 6.432 91.786 5.868 91.786C5.16 91.786 4.578 91.876 4.122 92.056C3.666 92.236 3.33 92.476 3.114 92.776C2.91 93.076 2.808 93.412 2.808 93.784C2.808 94.228 2.946 94.582 3.222 94.846C3.51 95.11 3.876 95.32 4.32 95.476C4.776 95.632 5.274 95.776 5.814 95.908C6.354 96.028 6.894 96.166 7.434 96.322C7.986 96.478 8.484 96.682 8.928 96.934C9.384 97.186 9.75 97.522 10.026 97.942C10.302 98.362 10.44 98.902 10.44 99.562C10.44 100.198 10.266 100.792 9.918 101.344C9.57 101.884 9.03 102.322 8.298 102.658C7.578 102.982 6.666 103.144 5.562 103.144ZM12.8177 103V93.46H14.5457V103H12.8177ZM13.6817 91.624C13.3457 91.624 13.0637 91.516 12.8357 91.3C12.6197 91.084 12.5117 90.82 12.5117 90.508C12.5117 90.184 12.6197 89.914 12.8357 89.698C13.0637 89.482 13.3457 89.374 13.6817 89.374C14.0177 89.374 14.2937 89.482 14.5097 89.698C14.7377 89.902 14.8517 90.16 14.8517 90.472C14.8517 90.796 14.7437 91.072 14.5277 91.3C14.3117 91.516 14.0297 91.624 13.6817 91.624ZM29.779 93.37C30.547 93.37 31.225 93.52 31.813 93.82C32.401 94.12 32.857 94.576 33.181 95.188C33.517 95.8 33.685 96.574 33.685 97.51V103H31.957V97.708C31.957 96.784 31.741 96.088 31.309 95.62C30.877 95.152 30.271 94.918 29.491 94.918C28.915 94.918 28.411 95.038 27.979 95.278C27.547 95.518 27.211 95.872 26.971 96.34C26.743 96.808 26.629 97.39 26.629 98.086V103H24.901V97.708C24.901 96.784 24.685 96.088 24.253 95.62C23.833 95.152 23.227 94.918 22.435 94.918C21.871 94.918 21.373 95.038 20.941 95.278C20.509 95.518 20.173 95.872 19.933 96.34C19.693 96.808 19.573 97.39 19.573 98.086V103H17.845V93.46H19.501V95.998L19.231 95.35C19.531 94.726 19.993 94.24 20.617 93.892C21.241 93.544 21.967 93.37 22.795 93.37C23.707 93.37 24.493 93.598 25.153 94.054C25.813 94.498 26.245 95.176 26.449 96.088L25.747 95.8C26.035 95.068 26.539 94.48 27.259 94.036C27.979 93.592 28.819 93.37 29.779 93.37ZM41.9226 103.108C41.1306 103.108 40.4046 102.928 39.7446 102.568C39.0966 102.196 38.5746 101.65 38.1786 100.93C37.7946 100.21 37.6026 99.31 37.6026 98.23C37.6026 97.15 37.7886 96.25 38.1606 95.53C38.5446 94.81 39.0606 94.27 39.7086 93.91C40.3686 93.55 41.1066 93.37 41.9226 93.37C42.8586 93.37 43.6866 93.574 44.4066 93.982C45.1266 94.39 45.6966 94.96 46.1166 95.692C46.5366 96.412 46.7466 97.258 46.7466 98.23C46.7466 99.202 46.5366 100.054 46.1166 100.786C45.6966 101.518 45.1266 102.088 44.4066 102.496C43.6866 102.904 42.8586 103.108 41.9226 103.108ZM36.8646 106.492V93.46H38.5206V96.034L38.4126 98.248L38.5926 100.462V106.492H36.8646ZM41.7786 101.596C42.3906 101.596 42.9366 101.458 43.4166 101.182C43.9086 100.906 44.2926 100.516 44.5686 100.012C44.8566 99.496 45.0006 98.902 45.0006 98.23C45.0006 97.546 44.8566 96.958 44.5686 96.466C44.2926 95.962 43.9086 95.572 43.4166 95.296C42.9366 95.02 42.3906 94.882 41.7786 94.882C41.1786 94.882 40.6326 95.02 40.1406 95.296C39.6606 95.572 39.2766 95.962 38.9886 96.466C38.7126 96.958 38.5746 97.546 38.5746 98.23C38.5746 98.902 38.7126 99.496 38.9886 100.012C39.2766 100.516 39.6606 100.906 40.1406 101.182C40.6326 101.458 41.1786 101.596 41.7786 101.596ZM49.1341 103V89.644H50.8621V103H49.1341ZM58.4094 103.108C57.3894 103.108 56.4894 102.898 55.7094 102.478C54.9414 102.058 54.3414 101.482 53.9094 100.75C53.4894 100.018 53.2794 99.178 53.2794 98.23C53.2794 97.282 53.4834 96.442 53.8914 95.71C54.3114 94.978 54.8814 94.408 55.6014 94C56.3334 93.58 57.1554 93.37 58.0674 93.37C58.9914 93.37 59.8074 93.574 60.5154 93.982C61.2234 94.39 61.7754 94.966 62.1714 95.71C62.5794 96.442 62.7834 97.3 62.7834 98.284C62.7834 98.356 62.7774 98.44 62.7654 98.536C62.7654 98.632 62.7594 98.722 62.7474 98.806H54.6294V97.564H61.8474L61.1454 97.996C61.1574 97.384 61.0314 96.838 60.7674 96.358C60.5034 95.878 60.1374 95.506 59.6694 95.242C59.2134 94.966 58.6794 94.828 58.0674 94.828C57.4674 94.828 56.9334 94.966 56.4654 95.242C55.9974 95.506 55.6314 95.884 55.3674 96.376C55.1034 96.856 54.9714 97.408 54.9714 98.032V98.32C54.9714 98.956 55.1154 99.526 55.4034 100.03C55.7034 100.522 56.1174 100.906 56.6454 101.182C57.1734 101.458 57.7794 101.596 58.4634 101.596C59.0274 101.596 59.5374 101.5 59.9934 101.308C60.4614 101.116 60.8694 100.828 61.2174 100.444L62.1714 101.56C61.7394 102.064 61.1994 102.448 60.5514 102.712C59.9154 102.976 59.2014 103.108 58.4094 103.108ZM65.5969 103.108C65.2609 103.108 64.9729 102.994 64.7329 102.766C64.4929 102.526 64.3729 102.226 64.3729 101.866C64.3729 101.506 64.4929 101.212 64.7329 100.984C64.9729 100.756 65.2609 100.642 65.5969 100.642C65.9209 100.642 66.1969 100.756 66.4249 100.984C66.6649 101.212 66.7849 101.506 66.7849 101.866C66.7849 102.226 66.6649 102.526 66.4249 102.766C66.1969 102.994 65.9209 103.108 65.5969 103.108ZM73.3608 103.144C72.4008 103.144 71.4828 103 70.6068 102.712C69.7308 102.412 69.0408 102.028 68.5368 101.56L69.2028 100.156C69.6828 100.576 70.2948 100.924 71.0388 101.2C71.7828 101.476 72.5568 101.614 73.3608 101.614C74.0928 101.614 74.6868 101.53 75.1428 101.362C75.5988 101.194 75.9348 100.966 76.1508 100.678C76.3668 100.378 76.4748 100.042 76.4748 99.67C76.4748 99.238 76.3308 98.89 76.0428 98.626C75.7668 98.362 75.4008 98.152 74.9448 97.996C74.5008 97.828 74.0088 97.684 73.4688 97.564C72.9288 97.444 72.3828 97.306 71.8308 97.15C71.2908 96.982 70.7928 96.772 70.3368 96.52C69.8928 96.268 69.5328 95.932 69.2568 95.512C68.9808 95.08 68.8428 94.528 68.8428 93.856C68.8428 93.208 69.0108 92.614 69.3468 92.074C69.6948 91.522 70.2228 91.084 70.9308 90.76C71.6508 90.424 72.5628 90.256 73.6668 90.256C74.3988 90.256 75.1248 90.352 75.8448 90.544C76.5648 90.736 77.1888 91.012 77.7168 91.372L77.1228 92.812C76.5828 92.452 76.0128 92.194 75.4128 92.038C74.8128 91.87 74.2308 91.786 73.6668 91.786C72.9588 91.786 72.3768 91.876 71.9208 92.056C71.4648 92.236 71.1288 92.476 70.9128 92.776C70.7088 93.076 70.6068 93.412 70.6068 93.784C70.6068 94.228 70.7448 94.582 71.0208 94.846C71.3088 95.11 71.6748 95.32 72.1188 95.476C72.5748 95.632 73.0728 95.776 73.6128 95.908C74.1528 96.028 74.6928 96.166 75.2328 96.322C75.7848 96.478 76.2828 96.682 76.7268 96.934C77.1828 97.186 77.5488 97.522 77.8248 97.942C78.1008 98.362 78.2388 98.902 78.2388 99.562C78.2388 100.198 78.0648 100.792 77.7168 101.344C77.3688 101.884 76.8288 102.322 76.0968 102.658C75.3768 102.982 74.4648 103.144 73.3608 103.144ZM84.8645 103.108C83.8445 103.108 82.9445 102.898 82.1645 102.478C81.3965 102.058 80.7965 101.482 80.3645 100.75C79.9445 100.018 79.7345 99.178 79.7345 98.23C79.7345 97.282 79.9385 96.442 80.3465 95.71C80.7665 94.978 81.3365 94.408 82.0565 94C82.7885 93.58 83.6105 93.37 84.5225 93.37C85.4465 93.37 86.2625 93.574 86.9705 93.982C87.6785 94.39 88.2305 94.966 88.6265 95.71C89.0345 96.442 89.2385 97.3 89.2385 98.284C89.2385 98.356 89.2325 98.44 89.2205 98.536C89.2205 98.632 89.2145 98.722 89.2025 98.806H81.0845V97.564H88.3025L87.6005 97.996C87.6125 97.384 87.4865 96.838 87.2225 96.358C86.9585 95.878 86.5925 95.506 86.1245 95.242C85.6685 94.966 85.1345 94.828 84.5225 94.828C83.9225 94.828 83.3885 94.966 82.9205 95.242C82.4525 95.506 82.0865 95.884 81.8225 96.376C81.5585 96.856 81.4265 97.408 81.4265 98.032V98.32C81.4265 98.956 81.5705 99.526 81.8585 100.03C82.1585 100.522 82.5725 100.906 83.1005 101.182C83.6285 101.458 84.2345 101.596 84.9185 101.596C85.4825 101.596 85.9925 101.5 86.4485 101.308C86.9165 101.116 87.3245 100.828 87.6725 100.444L88.6265 101.56C88.1945 102.064 87.6545 102.448 87.0065 102.712C86.3705 102.976 85.6565 103.108 84.8645 103.108ZM95.796 103.108C94.824 103.108 93.954 102.898 93.186 102.478C92.43 102.058 91.836 101.482 91.404 100.75C90.972 100.018 90.756 99.178 90.756 98.23C90.756 97.282 90.972 96.442 91.404 95.71C91.836 94.978 92.43 94.408 93.186 94C93.954 93.58 94.824 93.37 95.796 93.37C96.66 93.37 97.428 93.544 98.1 93.892C98.784 94.228 99.312 94.732 99.684 95.404L98.37 96.25C98.058 95.782 97.674 95.44 97.218 95.224C96.774 94.996 96.294 94.882 95.778 94.882C95.154 94.882 94.596 95.02 94.104 95.296C93.612 95.572 93.222 95.962 92.934 96.466C92.646 96.958 92.502 97.546 92.502 98.23C92.502 98.914 92.646 99.508 92.934 100.012C93.222 100.516 93.612 100.906 94.104 101.182C94.596 101.458 95.154 101.596 95.778 101.596C96.294 101.596 96.774 101.488 97.218 101.272C97.674 101.044 98.058 100.696 98.37 100.228L99.684 101.056C99.312 101.716 98.784 102.226 98.1 102.586C97.428 102.934 96.66 103.108 95.796 103.108ZM105.935 103.108C105.119 103.108 104.399 102.958 103.775 102.658C103.163 102.358 102.683 101.902 102.335 101.29C101.999 100.666 101.831 99.886 101.831 98.95V93.46H103.559V98.752C103.559 99.688 103.781 100.39 104.225 100.858C104.681 101.326 105.317 101.56 106.133 101.56C106.733 101.56 107.255 101.44 107.699 101.2C108.143 100.948 108.485 100.588 108.725 100.12C108.965 99.64 109.085 99.064 109.085 98.392V93.46H110.813V103H109.175V100.426L109.445 101.11C109.133 101.746 108.665 102.238 108.041 102.586C107.417 102.934 106.715 103.108 105.935 103.108ZM114.103 103V93.46H115.759V96.052L115.597 95.404C115.861 94.744 116.305 94.24 116.929 93.892C117.553 93.544 118.321 93.37 119.233 93.37V95.044C119.161 95.032 119.089 95.026 119.017 95.026C118.957 95.026 118.897 95.026 118.837 95.026C117.913 95.026 117.181 95.302 116.641 95.854C116.101 96.406 115.831 97.204 115.831 98.248V103H114.103ZM125.523 103.108C124.503 103.108 123.603 102.898 122.823 102.478C122.055 102.058 121.455 101.482 121.023 100.75C120.603 100.018 120.393 99.178 120.393 98.23C120.393 97.282 120.597 96.442 121.005 95.71C121.425 94.978 121.995 94.408 122.715 94C123.447 93.58 124.269 93.37 125.181 93.37C126.105 93.37 126.921 93.574 127.629 93.982C128.337 94.39 128.889 94.966 129.285 95.71C129.693 96.442 129.897 97.3 129.897 98.284C129.897 98.356 129.891 98.44 129.879 98.536C129.879 98.632 129.873 98.722 129.861 98.806H121.743V97.564H128.961L128.259 97.996C128.271 97.384 128.145 96.838 127.881 96.358C127.617 95.878 127.251 95.506 126.783 95.242C126.327 94.966 125.793 94.828 125.181 94.828C124.581 94.828 124.047 94.966 123.579 95.242C123.111 95.506 122.745 95.884 122.481 96.376C122.217 96.856 122.085 97.408 122.085 98.032V98.32C122.085 98.956 122.229 99.526 122.517 100.03C122.817 100.522 123.231 100.906 123.759 101.182C124.287 101.458 124.893 101.596 125.577 101.596C126.141 101.596 126.651 101.5 127.107 101.308C127.575 101.116 127.983 100.828 128.331 100.444L129.285 101.56C128.853 102.064 128.313 102.448 127.665 102.712C127.029 102.976 126.315 103.108 125.523 103.108ZM132.71 103.108C132.374 103.108 132.086 102.994 131.846 102.766C131.606 102.526 131.486 102.226 131.486 101.866C131.486 101.506 131.606 101.212 131.846 100.984C132.086 100.756 132.374 100.642 132.71 100.642C133.034 100.642 133.31 100.756 133.538 100.984C133.778 101.212 133.898 101.506 133.898 101.866C133.898 102.226 133.778 102.526 133.538 102.766C133.31 102.994 133.034 103.108 132.71 103.108ZM140.474 103.144C139.514 103.144 138.596 103 137.72 102.712C136.844 102.412 136.154 102.028 135.65 101.56L136.316 100.156C136.796 100.576 137.408 100.924 138.152 101.2C138.896 101.476 139.67 101.614 140.474 101.614C141.206 101.614 141.8 101.53 142.256 101.362C142.712 101.194 143.048 100.966 143.264 100.678C143.48 100.378 143.588 100.042 143.588 99.67C143.588 99.238 143.444 98.89 143.156 98.626C142.88 98.362 142.514 98.152 142.058 97.996C141.614 97.828 141.122 97.684 140.582 97.564C140.042 97.444 139.496 97.306 138.944 97.15C138.404 96.982 137.906 96.772 137.45 96.52C137.006 96.268 136.646 95.932 136.37 95.512C136.094 95.08 135.956 94.528 135.956 93.856C135.956 93.208 136.124 92.614 136.46 92.074C136.808 91.522 137.336 91.084 138.044 90.76C138.764 90.424 139.676 90.256 140.78 90.256C141.512 90.256 142.238 90.352 142.958 90.544C143.678 90.736 144.302 91.012 144.83 91.372L144.236 92.812C143.696 92.452 143.126 92.194 142.526 92.038C141.926 91.87 141.344 91.786 140.78 91.786C140.072 91.786 139.49 91.876 139.034 92.056C138.578 92.236 138.242 92.476 138.026 92.776C137.822 93.076 137.72 93.412 137.72 93.784C137.72 94.228 137.858 94.582 138.134 94.846C138.422 95.11 138.788 95.32 139.232 95.476C139.688 95.632 140.186 95.776 140.726 95.908C141.266 96.028 141.806 96.166 142.346 96.322C142.898 96.478 143.396 96.682 143.84 96.934C144.296 97.186 144.662 97.522 144.938 97.942C145.214 98.362 145.352 98.902 145.352 99.562C145.352 100.198 145.178 100.792 144.83 101.344C144.482 101.884 143.942 102.322 143.21 102.658C142.49 102.982 141.578 103.144 140.474 103.144ZM159.664 93.37C160.432 93.37 161.11 93.52 161.698 93.82C162.286 94.12 162.742 94.576 163.066 95.188C163.402 95.8 163.57 96.574 163.57 97.51V103H161.842V97.708C161.842 96.784 161.626 96.088 161.194 95.62C160.762 95.152 160.156 94.918 159.376 94.918C158.8 94.918 158.296 95.038 157.864 95.278C157.432 95.518 157.096 95.872 156.856 96.34C156.628 96.808 156.514 97.39 156.514 98.086V103H154.786V97.708C154.786 96.784 154.57 96.088 154.138 95.62C153.718 95.152 153.112 94.918 152.32 94.918C151.756 94.918 151.258 95.038 150.826 95.278C150.394 95.518 150.058 95.872 149.818 96.34C149.578 96.808 149.458 97.39 149.458 98.086V103H147.73V93.46H149.386V95.998L149.116 95.35C149.416 94.726 149.878 94.24 150.502 93.892C151.126 93.544 151.852 93.37 152.68 93.37C153.592 93.37 154.378 93.598 155.038 94.054C155.698 94.498 156.13 95.176 156.334 96.088L155.632 95.8C155.92 95.068 156.424 94.48 157.144 94.036C157.864 93.592 158.704 93.37 159.664 93.37ZM172.671 103V100.984L172.581 100.606V97.168C172.581 96.436 172.365 95.872 171.933 95.476C171.513 95.068 170.877 94.864 170.025 94.864C169.461 94.864 168.909 94.96 168.369 95.152C167.829 95.332 167.373 95.578 167.001 95.89L166.281 94.594C166.773 94.198 167.361 93.898 168.045 93.694C168.741 93.478 169.467 93.37 170.223 93.37C171.531 93.37 172.539 93.688 173.247 94.324C173.955 94.96 174.309 95.932 174.309 97.24V103H172.671ZM169.539 103.108C168.831 103.108 168.207 102.988 167.667 102.748C167.139 102.508 166.731 102.178 166.443 101.758C166.155 101.326 166.011 100.84 166.011 100.3C166.011 99.784 166.131 99.316 166.371 98.896C166.623 98.476 167.025 98.14 167.577 97.888C168.141 97.636 168.897 97.51 169.845 97.51H172.869V98.752H169.917C169.053 98.752 168.471 98.896 168.171 99.184C167.871 99.472 167.721 99.82 167.721 100.228C167.721 100.696 167.907 101.074 168.279 101.362C168.651 101.638 169.167 101.776 169.827 101.776C170.475 101.776 171.039 101.632 171.519 101.344C172.011 101.056 172.365 100.636 172.581 100.084L172.923 101.272C172.695 101.836 172.293 102.286 171.717 102.622C171.141 102.946 170.415 103.108 169.539 103.108ZM177.507 103V93.46H179.163V96.052L179.001 95.404C179.265 94.744 179.709 94.24 180.333 93.892C180.957 93.544 181.725 93.37 182.637 93.37V95.044C182.565 95.032 182.493 95.026 182.421 95.026C182.361 95.026 182.301 95.026 182.241 95.026C181.317 95.026 180.585 95.302 180.045 95.854C179.505 96.406 179.235 97.204 179.235 98.248V103H177.507ZM188.43 103.108C187.47 103.108 186.726 102.85 186.198 102.334C185.67 101.818 185.406 101.08 185.406 100.12V91.372H187.134V100.048C187.134 100.564 187.26 100.96 187.512 101.236C187.776 101.512 188.148 101.65 188.628 101.65C189.168 101.65 189.618 101.5 189.978 101.2L190.518 102.442C190.254 102.67 189.936 102.838 189.564 102.946C189.204 103.054 188.826 103.108 188.43 103.108ZM183.786 94.882V93.46H189.87V94.882H183.786Z" fill="black"/>
<defs>
<clipPath id="clip0_4400_552">
<rect width="396" height="75" fill="white"/>
</clipPath>
</defs>
</svg>
