<svg width="426" height="112" viewBox="0 0 426 112" fill="none" xmlns="http://www.w3.org/2000/svg">
<g clip-path="url(#clip0_4400_553)">
<path d="M158.755 1.23047L157.018 4.2572H114.844V1.23047H158.755Z" fill="#F15A55"/>
<path d="M156.273 6.78516L154.535 9.81507H114.844V6.78516H156.273Z" fill="#F15A55"/>
<path d="M153.77 12.3438L152.033 15.3705H114.82V12.3438H153.77Z" fill="#F15A55"/>
<path d="M158.643 53.9622H114.797V45.6236L134.914 23.7617H146.896L126.853 45.6236H158.643V53.9622Z" fill="#4D4D4E"/>
<path d="M34.2394 53.9263L20.1142 31.7684H8.52325V53.9263H0V23.5062H27.0239C28.9693 23.5062 30.6317 22.8315 32.0143 21.4788C33.3968 20.1262 34.0865 18.4999 34.0865 16.5966C34.0865 14.6934 33.3968 13.067 32.0143 11.7144C30.6317 10.3617 28.9693 9.68701 27.0239 9.68701H0V1.35156H26.9458C31.0904 1.35156 34.6623 2.75512 37.6552 5.55588C40.6481 8.35983 42.2747 11.7653 42.5317 15.7691V15.8455C42.6846 19.6011 41.572 22.9683 39.1907 25.9473C36.8094 28.9263 33.7254 30.7914 29.9387 31.5425L44.2168 53.9263H34.2361H34.2394Z" fill="#4D4D4E"/>
<path d="M97.654 53.9263L92.1269 41.3069H66.7165L61.2643 53.9263H51.8984L64.641 24.6329H74.0068L70.4739 32.7455H88.4378C79.8397 13.0193 75.2821 2.55143 74.7713 1.35156H84.1372L107.017 53.9263H97.6507H97.654Z" fill="#4D4D4E"/>
<path d="M194.458 0C198.297 0 201.957 0.725652 205.437 2.17695C208.918 3.62826 211.924 5.59515 214.458 8.07446C216.993 10.5538 219 13.4946 220.487 16.9C221.97 20.3055 222.712 23.886 222.712 27.6416C222.712 32.6479 221.446 37.2692 218.912 41.499C216.378 45.732 212.949 49.0833 208.626 51.5626C204.299 54.0419 199.579 55.28 194.461 55.28C189.344 55.28 184.607 54.0419 180.258 51.5626C175.909 49.0833 172.477 45.7288 169.972 41.499C167.463 37.2692 166.211 32.6479 166.211 27.6416C166.211 22.6352 167.463 18.0172 169.972 13.7842C172.48 9.55441 175.909 6.19668 180.258 3.72055C184.607 1.24125 189.341 0.00318268 194.461 0.00318268L194.458 0ZM208.199 41.0852C211.986 37.3806 213.879 32.8994 213.879 27.6416C213.879 22.3838 211.986 17.9026 208.199 14.1979C204.409 10.4933 199.832 8.64098 194.458 8.64098C189.084 8.64098 184.503 10.4933 180.717 14.1979C176.93 17.9026 175.037 22.3838 175.037 27.6416C175.037 32.8994 176.93 37.3806 180.717 41.0852C184.503 44.7899 189.084 46.6422 194.458 46.6422C199.832 46.6422 204.413 44.7899 208.199 41.0852Z" fill="#4D4D4E"/>
<path d="M264.635 53.9263L250.509 31.7684H238.918V53.9263H230.398V23.5062H257.422C259.368 23.5062 261.03 22.8315 262.413 21.4788C263.795 20.1262 264.485 18.4999 264.485 16.5966C264.485 14.6934 263.795 13.067 262.413 11.7144C261.03 10.3617 259.368 9.68701 257.422 9.68701H230.398V1.35156H257.344C261.489 1.35156 265.061 2.75512 268.054 5.55588C271.047 8.35983 272.673 11.7653 272.93 15.7691V15.8455C273.083 19.6011 271.97 22.9683 269.589 25.9473C267.208 28.9263 264.124 30.7914 260.337 31.5425L274.615 53.9263H264.635Z" fill="#4D4D4E"/>
<path d="M321.444 53.9263H282.289V1.35156H290.809V45.5908H321.441V53.9295L321.444 53.9263Z" fill="#4D4D4E"/>
<path d="M329.117 1.35156H370.572V9.68701H329.117V1.35156ZM370.572 45.5908V53.9295H329.117V23.5094H370.572V31.7716H337.637V45.5908H370.572Z" fill="#4D4D4E"/>
<path d="M426.003 53.9256H415.638C411.39 47.9676 405.108 39.142 396.79 27.4488C388.471 15.7588 382.29 7.05739 378.25 1.34766H388.615L402.125 20.3514L415.638 1.34766H426.003L407.346 27.6366L426.003 53.9256ZM396.982 42.2101L388.615 53.9256H378.25L386.617 42.2101H396.982Z" fill="#4D4D4E"/>
</g>
<path d="M5.562 96.144C3.636 96.144 1.746 95.496 0.738 94.56L1.404 93.156C2.34 94.002 3.942 94.614 5.562 94.614C7.74 94.614 8.676 93.768 8.676 92.67C8.676 89.592 1.044 91.536 1.044 86.856C1.044 84.912 2.556 83.256 5.868 83.256C7.344 83.256 8.874 83.652 9.918 84.372L9.324 85.812C8.226 85.11 6.984 84.786 5.868 84.786C3.726 84.786 2.808 85.686 2.808 86.784C2.808 89.862 10.44 87.936 10.44 92.562C10.44 94.488 8.892 96.144 5.562 96.144ZM13.6817 84.624C13.0157 84.624 12.5117 84.138 12.5117 83.508C12.5117 82.878 13.0157 82.374 13.6817 82.374C14.3477 82.374 14.8517 82.86 14.8517 83.472C14.8517 84.12 14.3657 84.624 13.6817 84.624ZM12.8177 96V86.46H14.5457V96H12.8177ZM29.779 86.37C32.101 86.37 33.685 87.702 33.685 90.51V96H31.957V90.708C31.957 88.836 31.057 87.918 29.491 87.918C27.763 87.918 26.629 89.016 26.629 91.086V96H24.901V90.708C24.901 88.836 24.001 87.918 22.435 87.918C20.707 87.918 19.573 89.016 19.573 91.086V96H17.845V86.46H19.501V87.882C20.185 86.91 21.355 86.37 22.795 86.37C24.253 86.37 25.477 86.946 26.107 88.134C26.827 87.054 28.159 86.37 29.779 86.37ZM41.9226 86.37C44.7126 86.37 46.7466 88.314 46.7466 91.23C46.7466 94.164 44.7126 96.108 41.9226 96.108C40.5726 96.108 39.3846 95.586 38.5926 94.56V99.492H36.8646V86.46H38.5206V87.972C39.2946 86.91 40.5186 86.37 41.9226 86.37ZM41.7786 94.596C43.6146 94.596 45.0006 93.264 45.0006 91.23C45.0006 89.214 43.6146 87.882 41.7786 87.882C39.9606 87.882 38.5746 89.214 38.5746 91.23C38.5746 93.264 39.9606 94.596 41.7786 94.596ZM49.1341 96V82.644H50.8621V96H49.1341ZM62.7834 91.284C62.7834 91.428 62.7654 91.644 62.7474 91.806H55.0074C55.2234 93.48 56.5734 94.596 58.4634 94.596C59.5794 94.596 60.5154 94.218 61.2174 93.444L62.1714 94.56C61.3074 95.568 59.9934 96.108 58.4094 96.108C55.3314 96.108 53.2794 94.074 53.2794 91.23C53.2794 88.404 55.3134 86.37 58.0674 86.37C60.8214 86.37 62.7834 88.35 62.7834 91.284ZM58.0674 87.828C56.4114 87.828 55.1874 88.944 55.0074 90.564H61.1274C60.9474 88.962 59.7414 87.828 58.0674 87.828ZM65.5969 96.108C64.9309 96.108 64.3729 95.586 64.3729 94.866C64.3729 94.146 64.9309 93.642 65.5969 93.642C66.2449 93.642 66.7849 94.146 66.7849 94.866C66.7849 95.586 66.2449 96.108 65.5969 96.108ZM73.3608 96.144C71.4348 96.144 69.5448 95.496 68.5368 94.56L69.2028 93.156C70.1388 94.002 71.7408 94.614 73.3608 94.614C75.5388 94.614 76.4748 93.768 76.4748 92.67C76.4748 89.592 68.8428 91.536 68.8428 86.856C68.8428 84.912 70.3548 83.256 73.6668 83.256C75.1428 83.256 76.6728 83.652 77.7168 84.372L77.1228 85.812C76.0248 85.11 74.7828 84.786 73.6668 84.786C71.5248 84.786 70.6068 85.686 70.6068 86.784C70.6068 89.862 78.2388 87.936 78.2388 92.562C78.2388 94.488 76.6908 96.144 73.3608 96.144ZM89.2385 91.284C89.2385 91.428 89.2205 91.644 89.2025 91.806H81.4625C81.6785 93.48 83.0285 94.596 84.9185 94.596C86.0345 94.596 86.9705 94.218 87.6725 93.444L88.6265 94.56C87.7625 95.568 86.4485 96.108 84.8645 96.108C81.7865 96.108 79.7345 94.074 79.7345 91.23C79.7345 88.404 81.7685 86.37 84.5225 86.37C87.2765 86.37 89.2385 88.35 89.2385 91.284ZM84.5225 87.828C82.8665 87.828 81.6425 88.944 81.4625 90.564H87.5825C87.4025 88.962 86.1965 87.828 84.5225 87.828ZM95.796 96.108C92.862 96.108 90.756 94.074 90.756 91.23C90.756 88.386 92.862 86.37 95.796 86.37C97.506 86.37 98.928 87.072 99.684 88.404L98.37 89.25C97.758 88.314 96.822 87.882 95.778 87.882C93.906 87.882 92.502 89.196 92.502 91.23C92.502 93.3 93.906 94.596 95.778 94.596C96.822 94.596 97.758 94.164 98.37 93.228L99.684 94.056C98.928 95.388 97.506 96.108 95.796 96.108ZM109.085 86.46H110.813V96H109.175V94.56C108.473 95.55 107.285 96.108 105.935 96.108C103.469 96.108 101.831 94.758 101.831 91.95V86.46H103.559V91.752C103.559 93.624 104.495 94.56 106.133 94.56C107.933 94.56 109.085 93.444 109.085 91.392V86.46ZM115.759 88.062C116.371 86.946 117.559 86.37 119.233 86.37V88.044C119.089 88.026 118.963 88.026 118.837 88.026C116.983 88.026 115.831 89.16 115.831 91.248V96H114.103V86.46H115.759V88.062ZM129.897 91.284C129.897 91.428 129.879 91.644 129.861 91.806H122.121C122.337 93.48 123.687 94.596 125.577 94.596C126.693 94.596 127.629 94.218 128.331 93.444L129.285 94.56C128.421 95.568 127.107 96.108 125.523 96.108C122.445 96.108 120.393 94.074 120.393 91.23C120.393 88.404 122.427 86.37 125.181 86.37C127.935 86.37 129.897 88.35 129.897 91.284ZM125.181 87.828C123.525 87.828 122.301 88.944 122.121 90.564H128.241C128.061 88.962 126.855 87.828 125.181 87.828ZM132.71 96.108C132.044 96.108 131.486 95.586 131.486 94.866C131.486 94.146 132.044 93.642 132.71 93.642C133.358 93.642 133.898 94.146 133.898 94.866C133.898 95.586 133.358 96.108 132.71 96.108ZM140.474 96.144C138.548 96.144 136.658 95.496 135.65 94.56L136.316 93.156C137.252 94.002 138.854 94.614 140.474 94.614C142.652 94.614 143.588 93.768 143.588 92.67C143.588 89.592 135.956 91.536 135.956 86.856C135.956 84.912 137.468 83.256 140.78 83.256C142.256 83.256 143.786 83.652 144.83 84.372L144.236 85.812C143.138 85.11 141.896 84.786 140.78 84.786C138.638 84.786 137.72 85.686 137.72 86.784C137.72 89.862 145.352 87.936 145.352 92.562C145.352 94.488 143.804 96.144 140.474 96.144ZM159.664 86.37C161.986 86.37 163.57 87.702 163.57 90.51V96H161.842V90.708C161.842 88.836 160.942 87.918 159.376 87.918C157.648 87.918 156.514 89.016 156.514 91.086V96H154.786V90.708C154.786 88.836 153.886 87.918 152.32 87.918C150.592 87.918 149.458 89.016 149.458 91.086V96H147.73V86.46H149.386V87.882C150.07 86.91 151.24 86.37 152.68 86.37C154.138 86.37 155.362 86.946 155.992 88.134C156.712 87.054 158.044 86.37 159.664 86.37ZM170.223 86.37C172.833 86.37 174.309 87.63 174.309 90.24V96H172.671V94.74C172.095 95.604 171.033 96.108 169.539 96.108C167.379 96.108 166.011 94.956 166.011 93.3C166.011 91.77 167.001 90.51 169.845 90.51H172.581V90.168C172.581 88.71 171.735 87.864 170.025 87.864C168.891 87.864 167.739 88.26 167.001 88.89L166.281 87.594C167.271 86.802 168.693 86.37 170.223 86.37ZM169.827 94.776C171.123 94.776 172.149 94.182 172.581 93.084V91.752H169.917C168.207 91.752 167.721 92.418 167.721 93.228C167.721 94.182 168.513 94.776 169.827 94.776ZM179.163 88.062C179.775 86.946 180.963 86.37 182.637 86.37V88.044C182.493 88.026 182.367 88.026 182.241 88.026C180.387 88.026 179.235 89.16 179.235 91.248V96H177.507V86.46H179.163V88.062ZM189.978 94.2L190.518 95.442C189.996 95.892 189.204 96.108 188.43 96.108C186.504 96.108 185.406 95.046 185.406 93.12V87.882H183.786V86.46H185.406V84.372H187.134V86.46H189.87V87.882H187.134V93.048C187.134 94.074 187.674 94.65 188.628 94.65C189.132 94.65 189.618 94.488 189.978 94.2Z" fill="black"/>
<defs>
<clipPath id="clip0_4400_553">
<rect width="426" height="55.28" fill="white"/>
</clipPath>
</defs>
</svg>
